<mxfile>
    <diagram id="FB0lLMp8adpU2UOfi77A" name="Page-1">
        <mxGraphModel dx="3245" dy="979" grid="1" gridSize="10" guides="1" tooltips="1" connect="1" arrows="1" fold="1" page="1" pageScale="1" pageWidth="827" pageHeight="1169" math="0" shadow="0">
            <root>
                <mxCell id="-sU8y2Q3AdZbQh8XbGMl-0"/>
                <mxCell id="-sU8y2Q3AdZbQh8XbGMl-1" parent="-sU8y2Q3AdZbQh8XbGMl-0"/>
                <mxCell id="-sU8y2Q3AdZbQh8XbGMl-2" value="" style="rounded=0;whiteSpace=wrap;html=1;dashed=1;labelBackgroundColor=none;sketch=0;fontSize=45;align=center;" parent="-sU8y2Q3AdZbQh8XbGMl-1" vertex="1">
                    <mxGeometry x="-1330" y="260" width="2270" height="1660" as="geometry"/>
                </mxCell>
                <mxCell id="-sU8y2Q3AdZbQh8XbGMl-5" value="" style="rounded=0;whiteSpace=wrap;html=1;labelPosition=center;verticalLabelPosition=middle;align=center;verticalAlign=top;horizontal=1;direction=south;strokeColor=#666666;fontColor=#333333;fontSize=15;sketch=0;fillColor=none;" parent="-sU8y2Q3AdZbQh8XbGMl-1" vertex="1">
                    <mxGeometry x="-1190" y="430" width="2030" height="1420" as="geometry"/>
                </mxCell>
                <mxCell id="-sU8y2Q3AdZbQh8XbGMl-46" value="Data Lakehouse&amp;nbsp;Infrastructure&amp;nbsp;Components&lt;br&gt;(work in progress)" style="text;html=1;resizable=0;autosize=1;align=center;verticalAlign=middle;points=[];fillColor=none;strokeColor=none;rounded=0;dashed=1;labelBackgroundColor=none;sketch=0;fontSize=45;" parent="-sU8y2Q3AdZbQh8XbGMl-1" vertex="1">
                    <mxGeometry x="-620" y="265" width="890" height="110" as="geometry"/>
                </mxCell>
                <mxCell id="-sU8y2Q3AdZbQh8XbGMl-49" value="Azure Cloud" style="verticalLabelPosition=bottom;html=1;verticalAlign=top;align=center;strokeColor=none;fillColor=#00BEF2;shape=mxgraph.azure.azure_subscription;rounded=0;dashed=1;labelBackgroundColor=none;sketch=0;fontSize=18;" parent="-sU8y2Q3AdZbQh8XbGMl-1" vertex="1">
                    <mxGeometry x="-1161.56" y="390" width="74.62" height="60" as="geometry"/>
                </mxCell>
                <mxCell id="PrAZnpQkdzTBEj-k0U2I-0" value="{ Ingenii }" style="shape=image;verticalLabelPosition=bottom;verticalAlign=top;imageAspect=0;aspect=fixed;image=data:image/png,iVBORw0KGgoAAAANSUhEUgAAAMgAAADICAYAAACtWK6eAAA5q0lEQVR4nOy9B3hbx5n3+0fvIAj2InY1UlTvzZJlucmObVl23GNnnb2OU9bOZpNsNlnflN2bvl++ddZJ7HUcO3G35VjuttxULcnqJEVJ7BQrSPTe7nMGAxAkQPAARCNzfs8DAgRwzgyAec+8885b+ODg4JgUTkA4OGLACQgHRww4AeHgiAEnIBwcMeAEhIMjBpyAcHDEgBMQDo4YcALCwREDTkA4OGLACQgHRww4AeHgiAEnIBwcMeAEhIMjBpyAcHDEgBMQDo4YCDPdgb9TigBcB2A5/Q36AbwM4GymO8bBkUkqAfwBgAeAP8rtG5nuIAdHptgKYGASwQjebADmZbqjHBzp5i4AzimEI3h7ItOd5eBIJ6tYCkbwdixJ7ZZzsxHHTOBsnAJyaZrt/R8A9gnnbKOzGAdHVrElTuHw0wV8onxvinM/DYCXxM836+HMvKnli1GeGwLwPoBDYWZdLwALAMU0B/CXp3j9bgBvAXh+Gm1wcCSNU/TK3Qrg/wOwMsXtsZmhnktxHzg4WMPMELemsT02AnIhjf3h4IiJMs3tXWAhIKY092lGwy3YZhf1AMQA3ACkAPIBzKWm5m0AygD0AKjIdEdnCpyApBYBgDUAFoQZRDwAmgEcpYvzdFJEheWNNLfLwTGORgB/BWCMoeoYALwKYF2mO8sxOdwMklwWAvgpgJ3MP1qtFtu3b0d9wyIUFxWSNwwMDqGp6Sw+eP99jI6OBo97BcAjAJoy2HcOjpTBo5t0ZmZ22HnzLv/u3bv9Xq/XPxnMa3v27PHfccedwRmFUbd+xl20OGYjLzCDPC8/3//6nj2TCsVk/O311/3FJSVBQeE28ThmFY8xA3vZsuX+i21tkwqBxxe4TUZfX79/+/Yrg0LyGgB5pj8YB8d0+TkzoK+++hq/1WodN+AtLr+/z+r1XzR6/S368TfmOeY1s2u8kNjtdnIuKiR/SqA/pQD+jVqpjgM4R72DXwXwALMsSsF3MKvh9N3EuRvA0zW1tWhtbYVQICBPmlzAoN0Hr5/dSQQ8oEjGh1oc+N9sNmPtunVobiLr9V10AT8VFQB+C+BGFu99ikYuWtj18O8bLmlDYuRQaxVeeuklIhweH9Br8aHPxl44GJj3Msd0W3xwegGVSoX333sfBQUFzMu/YXHVvx3A54xwbNy4Ea/v2YOLbW3w+/2h27lz5/C/Tz6JpUuXMe+/l84qV07rG+DgiAFRrR77/R+IamR0+v2t+khVKt7bOb3Xb3IG1K0XX3qZzaL9n5n3rF6zxv/BB3tZGQR2v/aaf86cOcFzfzeN3xnH3wnVjCZ0xfbtZMAZnP5pC8ZEIdHZA6v59Rs2BAfy1ij9+E/mtRtuvNFvsViiGgWcHr8/mqG5o7PTv2Xr1uC5v5qB73DGwK1B4udJAPe9/Mqr2HHDTeg0+1LSSKmcj/f2vIpbdt3M/PssgDvDXt7JrE2WLVuOg4cOQiqRkCdtHsDg9MHiAXxhah6zzlGLecgR8SClDi8WiwVr165FU1OTFcAG6prPMQFOQOJDCaC7uromt+V8G7osPqRGPAI/TJWShyWNDWg912KiFiorNf/2KpXK3KPHjmHB/PmwuoFhhw8OFp5dcmHAKCARAC0tLVi5ciVsNlsfgEUA9Cn6ODMWQaY7MMO4A8Bt999/Pxo2bIMrjsV4Iri8gFLgxTvvvCOhruwnAfwXgM179uzBqjVrMGjzYcjhh4dlX9w+wEg7XlFSgPyCArzxxhsqACIA76X2E808uBkkPl4GcPMrb76H+vXb0tOieRgLK4pBzb1fBmC85tpr8dabb6LP6oPJnfip1SKgQOxFTU0Nent7PQBKAOiS2PsZD2fmjY+FIpEYC1dtSFuDAnUBGhYtBnWZ/z7z4JFHHsGAbXrCwcAcb/YK8ejv/gfUHf+WpHR6FsEJCHuY9Uf96o2XgSeSpq1Rrx9oXEU84hsAfLOquhp1i1fB4ErO+Ycdflx+9fWYP38+OItWJJyAsIeMoMYVq9LfcENj8KHs1ttuh86RvMUPc6Z+mw9XXXsdaBzL/KSdfBbACQh76pg/lTV1aW+YLxizpTSs3oxk2wZ8ABavuyz4701JPv2MhhMQ9uQwf0rnVKa9YZVKHXq8dO2mlLSxeHVoXbUmJQ3MUDgBYY8sFSf1uN346x8fxdO//y0cdlvU96g1ueReJBZDLI1c/wxc6sGjP/sRXnvuzwn3Q5WjwZyqaubhZQmfZBbCZVZkT0r2jL73wJfw5qsvkMefffIhfvfc3yLe4/EEspEuWhaZd87v9+FL112O7s528r/DZsNt/5DYWludwwhiRy7NiOJI6CSzDG4GYQ9xD7dbrUk9aWfbWB63Sz1dUd8z2B/IZy0UiiJeM+n1IeFgOHf2dDK6tSAZJ5kNcALCniLmT2tTUgZgiKtv3BV6fPk1X4j7+BxtHjHTBrn5rnuT0a0vAShOxolmOpyKFZsldPf6eurFi7bz55LawP0PfRerN20Bn8fHouXRTcgDl3pjnuO/nnoeJz47iMKSUlTPTcrF/yEADwL4EMAHtKiPMRknnmlwAhKJgnrOfjmaRefYgU+T3uDiFbENR82nTpB7lzP6skAskWLN5suT1h+xSASX2y1mJjh6+xGAxwG8BOBg0hqaAcxWFWsTgLVxHsOjgnGeFtoko1YmEmDL/AL84Z4V0Cgk6OvtRk/HxdT0Ogo+nw/HPztAHjefPpHStvQjATestx/ehG9tn4t5RaHUwgo6qzAdeR1ATQKnX81okcnsbzqYjQIiB/Aprb/xDyyP2UaTtv2FupUjXynGN6+Yh73/vAn/c8cSbKrNRXVeINHIR++kL3Pnp++9CbMpoN24Xa5JZ5HpYrNYiPArZBKUKPi4f2MlXntwLZ77ympcs2jccoRRN88A+B2APJanZy48n9G6KOUp+QApYjYKiI0KCKju/JUY711Gr4of0KyIaCjX4IkvrcSn/7IZD2yqQI5UAIPNhY5hM2oLAlshBz76IB2fg/DWqy+O+//o/k9S0s5n+z8i93ML5DjTM4o+vQ1OjxdLytX49S2LyPdx/+YaqKTEkiana5RLAL49hQn8TnrhAb1oTbfEXFqZDQJyD00GvTrsuW1huvIfJ6m89BBNjbOe+SdPKcEf71mBl76yEutrNPD6/Lg0asXRDh1a+gwYMNqxolJDDvz0/bfRN4lJNpkwbex56VnyeF6Ritwf/Dg1wrn/g3fJfYVGDIvTg64RC453juB0zyiMNheZUb+1rQYfPLwBO5aEJgEJgF/SAkHRfLjuChOO03Q9E/SUWUxn7aSY3VLFbBCQe+nV/0MAv6Zetx4AV9GZAVRIgjNJDk2E8F8gewsC3LuxGm99cz021ubC7vKgfciMzzt16B61EkEJUqgQoio/oJc/97+PpfyDPfl/f0Xuy3KkWFEamL3e3v1SStra/2EgVips3UGwOj1o7jPgbK+eXCTkYgF+uXMBnrxvFZZUhBKu1FIV6p6wQ5mZ4xn6+BNar9FCPRJ+Qi9g9RNCibOO2RBReIjWvVhCM6UzX3g71ZNfoWrUfKo759KYcmJP3bawCL++pRFfWFwEp9uDTp0FHToLGRT+STwCZQLg8x4TzjefxfYdNyI3Lz8lH+pSdyd+9M9fg8vlxOYaDWq1EhzptcBkNGLD1u0oKZ+TtLbeee0lvPjU42SWuL4hH2JR5LBweXxE1Rwy2eEHD/OLlNi1vARqmRjHuw1we/1S6ui4HEABtXqBCsf11Ex8FV3k30TrmDCLuW9lc5DWbBCQEQAv0qvTFVQIbqfetx/QvLmrqeVlbdCn6t6NNfiPGxaQNUaHzkyEw+6eOqhbJeLjos6BQYMFRw9+itu+/AB4vOQHZj7y0APEaqWRCXFjQz4kQh70di8GzC4M9vXiC19MTlVnu9WKB2+/ARazCRurNagvVUEomFyxYCZUo92FQZMdUpEA62rysL2hGKcvWTBkIgYE5mJ0DX07o8LuoA7DPwfwaNjC/gc0/iRrhQOzRECCHKLCwMwklVTH3Ul1X+bqtpF5E6Mi/PC6enxlYwX5kc8PGGF2sK+8zAgD3+fBqT4rRoaHIBAIsGrD5qR+kNeffwa///V/ksc3NOSjUBnYripRi/FZtxndHW1YumoNKpLgev/yM0/gzVdegIDPx/ULc1GiVbASeEZQRixOOFwelGtluGFJMTpGHWgfHpew8WYAzMLtXSooDEfo49ToiklmNgkI6GzyJwCjdLYooylCiXDUFSrx7D+uxdIyJVoHjESn9sUZXCEQ8CHh+UNX88/2fYy5C+pRt6AhKR/gjRf/iu888CXyeE2lBusqAmsC5qou5vNIBpM+owN733wdV33hZmi0bC2tkXRcbMU37r4FXo8HaytzsLRMBZVCEtc5bC4vBgx2iIV87FpRBq1aiSPtOngCX+w9NCdwHq2N+O8A7gMwmHCn08xMFZBdNE2NnCYaUNLaHMEsPEdo1vXbqMqF5RUaPH3fCrg9bpzrN8DhTjxhj88HlCqFOK9zwOry4p2/vQylUomlq9dP60PtefEv+M7/ExAOrUKMWxvzIOAHruYatRR2pweVuRIc6THD4XTi4Efv47pdt0Mqiz8R/EBvN/7hpqsxqhsms+quRXnIVUoglSTmXGG0u2Gyu4mhY9O8Irxxuo8RkuD4+oBepMJNcELqvsOovnPoBa2crh+zhpmY1WQFzS0bCw9dkxC77Lq5hXj8zsVoHzJh2Dz9jTa3x4sBnQUOjw//c3gQJnsgQPz6XbfjZ7//87gIQDb4vF78+NtfxwtP/ZH8LxQI8MC6EuTLAudhhKS0UA2dwQq7w4NT/TbsPjtMXqtfvBRPv/kxFEoV6/a62i7gS9dfjsH+PvD5fNy/qgilajEKtQpIxNPzPhLweJhXkoNhiwc7HzsMr49ciNwA2ui6cKoGGPW4e1qdSCIzdQa5ilZwnUzA+XTdga0LCshGV+ewiejMyYDR150uL3h+P+bmy9A05IDb6yOWrQ/feh3avDzUzF/ISpc/8OF7eOjeW/HJe2+R/1USIe5bWUxMykFU8sCVnWnXanejWCWCyy9Aj8GO4cEBsrNft6AeZRVVU7b3/p7d+MbdN0M3FNByrlmgxYICGfg8HpmlpmtwYBSrUYsDJTkSXLW4DB+36mBzeQT094q1reCl68hHwzSBjDMTZ5CJlFBXdAHVdb8NYDvzwooKDX57WyN6RixEV46F1e3HsMlOHheqpZCLYm8RMYvT4dFAbMio3YvXW/ToHBmLFSmrqMT263di9cYtqK6bh/LKajJ8ers60XHxPI7s/xifvPsmeRykNEeGWxrzkCsbu27x+TwU5yuJcDD068zweALj5+MuKz4+P2YE2rD1Cly36w6s27INRaVjHh09ne147/VXsPfNv+HEkUOh5y+fl4fNlYE1To5KCnWM9Qcz8PuMTjJ7ysQiFKkiY1MmUqqRY9DswgN/PRmu0v47VYF1VCgG6JokxWn4EmM2CEg4C6j6pSjSKPCHOxthtTvhiGG+dXqBF48P4ODFEWxbkI/N8/JRqGA3sY4YbbDZx5JTfdJpwUcXRhLq+LpqLbZWKyEWjP9JtDkyKGTi0P82hxsjhrHQ3M96rXi7JdJSKhSKkJefj8GB/ojXmDZuWFSAhsLA5iMzaZTkq4gBIhZ+P3C8x4R3m4cxanPjrjVzsLRMEfOYApUUR3us+MmeUH3Sd8LMwFnPTFWxolFMneGKpSI+fn/HYni9HtinmDmeOtSL/Rd0ZBF/z5pSKMTsnQukYiFsdldoU7FKIya+TA4vYHZ6g5acSWEG5LwCOW5uLMCyElloQR46v0QIjWp8KLxIKCBC6aONlqvFqMiVQe/wwBhmrvb5fLBaImvk1OTJcfuyIlRqxoQuVy1jtThnBKk0RwKtUoKPzulwrMuI1dUaKCWTDyOby4PGUhV8PAHO9BKnyzq6Rtw3ZYNZwGyaQV6mdnf839uXIk/GizlzMAxb3PjPdy7ihqUleOZQN9bWFeKeVYWQCNkLidPlwdBoZBiuxw9c0NnJ3sCw1UNUMlChIi4rWinm5ssh5EUXIkZYisJUq3Bcbi+GRi0Ru/06mxcn+yzoNjjg9oyp8VKxANVaKZaUKJAzYTDLpCLka9hbwTr1Lvzi3QuYV6jA0goNdGYndi0rmvK4slw5fvNRN9470xd86nq6k57VzBYBuZkKCK5fUoY7VxURd5Gp6ByxoUfvxKa6XLx8cghvnxnA8spcfG1zfG4cZqsThiRYx8IpylNGdfkIYrW7MGq0T6sNZn3DqFZ8Prth0Gtw4mfvtqFEI8X3r6ohg+e1U4O4ccnUAsKQq5Thrv89FlwPDlMTb1aXgpsNKpYawG4AGo1CgkeurYPZwS5prUAoQF2+nKgOC4sV6Bq142SPEaM2D5bOUbO+ekjEQmIFCs4S04EZrIXa2MIBEvUnICZaB4sLQTSYGaowVwEhy9myddCKX73fBplYgIe3VpK9E4YyrQISAbtvyuX2YHlVPva2DIEGYYE6mWYts0FAGOFYxaw7fnvrYjjc7DM6Mz9s0KrJ3K2u0qDf4sHhthGyCdhQooJ0CmtW6FxiIVGfHDEcHaeCGfQFWgVZZ7BqUyQg73U448tizfSzgAgHu3aO9Vjx2MftEImE+KfLa8g6JNQHlsIBaqbSygXwgo/WATOoc+nhbNscDGemC8jNtOwxdq4oR11+fG4SE2GEZUm5Gq1DVpwfMONUjwlravIiLEuTIRTwIZeK4PX7x60B2LSrUUnJYjnamiMWjIDIpWJ4vD5yi9kOaDs5MtZq1ec9ZjyxvwvM27+zvQaV2ukl7vb6/FhcnoPPOozMTM+n8TiP04V71jGTBYRHHd4K8lUS/OPGCvCSYEpnZGFhkQLNgzb0Gx043WchMRJqKbuvihl4jJDIJCJyzWQGxGQzikjIJyZcbY6cvJ/H48Hu9qHX4EDLgBXtw1Z0jdjJbcQeEAC1VIiJe3lMm8x5mJmBOQfzOg+Be6FAQJ5nXs/TyFm7knj9wIfn9fiwxw+LyYSHtlWjtiB+l5ao5/b5UJgjw+H2UdAqvnq6SZh1zOSsJl+jATf4QmMh+EncfM1TikmMyGOfdECeV4Yfv3Eet6wsxfb57OvwM+oSM/BBXVO85AofkBRGMBjdPzhbGBxeHDqnI8J4fsAU87zMjLG4TI3lFWqsmKOGKGx2Y9S86bqKMBgdXjxzpA9Vy7fg6V8+hF3XXYX5RbH3O+KlsUSGBcVKnBsga/R/o8FVQ0ltJAnM5IjCf2f+lGjk2FCbm/STX9IHNuN27rwJv/zVr/H8kV68eiqx348Z1FKJCEq5mNyYQRzaGTc68aM3LuDl431TCgeosH3epcfj+7rwmw+7pjRlx4vR6cNv9nZg8ZYv4NVXX4VCoSD+a/F6PU8FM6te2xhKBpFLPSCyjpkqIN+mUWtkcy8VjNgCA89gMODhhx/Ck08+ifdaRvGrvZ0YtiSneg2jTv3ivfaQsyODWq3G008/A51uBH6/P3S7cOEiHnzwwXHHMwL11Gd9SekLw2edJvzrq824+e6v4KmnniLPWWmq1e7R6ZmUo9FQLCdrPsp9YZatrGEmqliltEY4VlVpMa8wOXrxRNp04zOt33fffaiursZNN+3Ev7/eirvWVmBDTc602jjQboBpgknaZDJhz57XSahtY2MjCciyWCw4duwYDhyMzNl2tEOPL6+vgJif+CWeEdQnD11Cl4WPV157HTt27Ai9NjQU8Bq2uFLjP3jnmnI095+D2+vLB/A9AD9MSUMJMhMF5B5akRVXLGC/JogHj5+HAerv5PWOqTBbtmzBqVMncd111+HJA2dwtEuDr2woj8s9JRw+L/pxL730ErmxP09CzRNOXrLgz4d6oc4rxIEDHwRLsYUYHQ34lg2anFhUkvwLfJ5ciE1ztfjwHPEnuy/bBGSmqVgymq4HFXkK1CXJqjKRPsPYrvjIyOi41yoqKvDuu+/i2muvxZleA3645zwOdU69dojG6io11NKpvWJjsaIqd1J3lViYnD789Wgf/vvDdmy98lrs378/QjjC6TOmrhrC+trQha4MwDdT1lACzDQBuTWYZX3nspKUNdJnHIsb6euP1PFLSkrwt7/9DY899hjcEOKJfZ34z3faceJSfF4TSjEfD22rIn5KibC6Wot718aXqNDh8WH3qSH86+4WHO624dlnn8Vrr+1GZWX0yll2e2Dt0WdITixNNKq1UiyrDAnJI3FkbEw5M03Fupv5o5SK0FiSmtkDxIlxbNHs9UTfvxIKhXjggQewdt06XH3VVWgbHMSjH1qwqlqLm5YUsYqXYKjUyvDIjjrsbzPgQNso2oZiC5lIKEBjmRpXzM/D/KL4voNj3Sa8dLyfOBjOnTuXqHFLliyJeczAwAC511mnWXN6Ci6r0+BEV2hfZBvNVJNxZpKALKNfHK5rZOcclyijFvbqxNIlS3Dq1Ck8/PDDePHFF3G0YxSfd+qxtkaLqxoKUJ4jnvIcAl5ggDA3m9tPTL/9Rgda+k043GHAjkUFKMtVoEglRIVWHteaw+nxoXnAhtdODqBXb4NMJsMPf/hD/OAHP4BYPHXfRkcDKibznTBrs0TUOTYsLFZCIREGnUwf5AQkfkhdMY1cjG1xbNglgtMb36q3qKiIqCpf/epXibWrra0NB9tGyG1esQqb5+aTwCIZC78uuYiH2nwpuXm9XiIgyytyUJUX32wxYHZj7zkdOd5GfbVuuukm/PznPyezRyJ06Kwk3iUVCPnA5QvysecUmbEuo9ka21LSWDz9ykB7xfTeQG9syA1mal9UnjMtqw0bBsIi9hwO9rPJpk2bcPZsE/7jP36Kn/70p+S58wNmcgNdUK+r0WJxqQJx+PixRm/3Yl+bAZ+cH4bBOqYmMmumV199FWvXxlsRYryRYtDiw9yCpHU3gpUVOUEBAc1p9svUtcaOVAmImqpDl9MsJCoaDhutvU6az6oZwHs0JHNiDOmtQYPChhpNiro8xoh9zObf0xu7utNEpFIJfvKTn+COO+7At7/9L3jrrTdDrzGqF3OTiAQoVokxRytHcY4U+UoJ8hTCCHeZETrI+6NYkBw+AYaNNhKM1T1qw6jVHdr9n8j3v//9hIQD5PP3jPXHZKUZllJDuUaCygIVuobJBeW22SggXwJwA4Ar49gVraK3FXQRbqfJpX8EIJhC/VrQ+OZ5BSmpxhyC0bMt9jGLjcmYWOWxhQsX4oknHkdpaeROv9PtJbEnXSx3p584EJ+QTqS5uTnhY8ONFMx3k2qurc/DY58QAVnOTCosUjyllGQICJ+WF3g46DwImhqH0ZtrC+UoVooglYhRwFwlwxZ5VrcfOpOD7NKeG7Dg3KAFPp9fRjeMmFnjGwBeo2l+iINeqhk0RZozbTYb5PL4de9z55JbzzBRmpqaEj42XMXq0ae+MvSKCjVy5WLobWT2vG+mC4iS+vLfFnyiQCXButo8bJ2nhVrCYpulODDR7FhUAJPTi7fPDmFv6wi8Xp+CZmJfTetQoL4kddN7kGgJrDs6OtHQUB/3uVpbW5PUq+nR09OT8LG9YSqWdYoEGMmAmaOqC+TQdxEBuRnA1zOZEmg6ApJPywuQzM0auRg7lxZhXU1uxCLa5/NHDeYRCHjjAoTUEgG+uKIEy8rV+K+97XAF3MMfYP4opCJiCkw1w+ZIR8Th4aHwyZE158+fT1KvpkdHR0fCx3rCVKxLhtTPIKD5zI53EftNEa03mfzKqSxJVEAYxXovs/Dm8XjYNDcPt60oJtlAfH4/HE4vyfbhdHvgdvtCKWomQywKBPVIxEKIxQLMK1Lg5uWleO7oWLWutVWalFh+JuJwR24MBj1a46V9GgMz2SSqJobjdLmJ23uqrYhLypQkJZI3cFHdkUkBSdTV5L+pVQrXNxbgS2tKIeLzYDDZ0TdkwrDeCpPVSdJzTiUcoGlsmPczx/UPmWF3uomFJ5y5henxhI6mZre0JLaW6OnOmhSzaGlpifsYgyHSQKF3pF7bkYn4KB+Le4+91Z9iEhGQLdRGjWVz1Li+sQgGsx39w2aYba6EExYEYQRKp7fhwPnh0HMioYBkGUkHZlukZcliMSd0rmxZgzAMDMZfcaCp6WzEc9G+n1RQVRBSpzdmMjQ8EQH5GfMnRybCHStLSa5Ys9XFaqZgi87mweGuMQ9ZZu3BMrnItPFFMWUODCRWziJR1SwVdHfFX3TUFkUYon0/qaCxdFyN9i1paTQK8Q67mmCB/Svna2G12MkCPNkc6DQF0+YTkpUsgA1WT+QAOHcufvXEmOD+Saro7IxfQKIZGaze9Fyp6grGqdSJ7XImgXg/7e0g/kICLMhPzYbdqD2QPjOcItXUTnXJwmiJvGrG424SpK0t425E4xgZib8UYMB6Nx6jOfpufbJRSfgoHQsDWJOWRqMQr4CQsgKNJUoIUuTVua/TTGKww6kpSF+ocvjMFeTs2UhdfCoS0flTSUdHZ/zHdEYeE+37SRVLykLrztq0NTqBeAVkJfOnmGWsQ7wws8eJ3pBqQnalFFIRCcvMJMxawhfnwOidxuZcKjAa2fqFjtEVRUDSSb4ypDnUB8Os0028AkIu5cGqq8lmX0dIOEaZCxjzIF4371QR72abyZRYGG6qGByKP2WRTpdYrZNksWD8xnBySwmzJKEVVyrsGMM2D05cCplT/0INAqjMS61zIlsMhviuwBcvXkxZXxIhkRktmpk3nRSrhFBKQ7PIpkz0ISEBMacg+nJCPPfeYN+KlelboCcTzyShujMFvV6f6S4Qwgw0GbFkxSsgZOdrIIrH63S5MBKyFH1G69YRSliErKaD9vb4VKzpOAhmA+3t2ZFwPez3b8xE+2wFpIF61ZJVW+twcp3Wes1uDJtDQvcMbY8QSAKdeaKZPGMxMpJZ/T0ag4PsP0O8RolUUT5m6k1NCs0piCUg6wH8iUb7naVXdhKX0WcMlBZLFueHxtnWX6a1sgnFyuwQkHj3NcITzmULXV3srVK9vZdS2he2TMgYWZzu9qMJyHJa9ecAgHtpGpYI9rYZk5bQuH1MvXqXlgQmV4sijSIi1X+miHdGGB6Of2Mu1dhs7Df5BqJUx80E2vFFTONLApYEwu21EgD/Jxh/waAQC0ixxqpcCfLlQlJ/w+gE+k1OsmbYe9GA7XOnFyPOyNjAWB6q9+k9Cb7Ik2dPXruWOKMDL12aXphspknE+zcVaKTjxsDCdEcYhgvIiwC+wDwQCfjYsTAPS6MkZ2Mu7QsLJLi8Vk1S5ds8wHT28br0zvBgqr30nuy3VOSlPkBqIjKphIbFj0c3PJz2viQbk4m9V/JkngBy2fQqTMVLcc64GSTtA0JItzX+NygczKLohvpcFLAY9TlsQmqnoN8SMocyo/IkfUz2QMS89C8UNbLon7u9vZ2sKwSCmVuUK569nIsXLkR9Podlpa1kIRq/BqlOa+N0DfJjGhxPCr7/w8oCVsKRDAwOHzr0IetVZ5g7AXHCKc9PTwxIOGL+5ELZ2souhDYeXT+dmM3sZ5DJYllifT+polAT8sWbXr2JBGAk4VvMgzyFGDfW5yWlzt9UePw8vN2qx+c941zCGf3SHF5cXiFIvyUoRzH5zr3dzm7gx6PKpBO2purRUf2kQh7r+0kVsjGhTH4psSlgZhCy0LhuYV7KPHTDYVrYfVaHMwNWlGvlUMnH6bQSmsmCIBCkf5GulU5uNutlmUTO6UxdJvR0cP589NmDz+MhN8b3kyrCEntkxoq1qESJ6tz07Fh3mzxYW6vFQ1doQsH/NrcP5wetaBm0oqnXSKxkDEW5qqBTb9oozZ38Csk2hNbhSE9YaqpomiTRXFUaww7CyVXLAR2Jzky7WwURzSvq0jdz1ZeosL5GMy4zhlzEx9JyFW5fUYxtCwtDzyszoGLNiSEg2ZIILtVYJlmr1BWk36rIkDtW/n5ZumcRfmmOdKKtOaXw/LEH/RtnAm5Yq2vyUp5eJhoSAVCqie5iP50MhTOJyQLE8jPkOLquNlRPhx9MYp4uhGVj6VXSgtszuRXkk4sGGGwBV+FrG/LT2KvxVOVJ0WeIXKSy3SwUCNhbARUSCS6vqUG+TAq3348P29rRFyOWZENNNeZpApuzZ0ZGcKyLfWqhnBx2RqCzZ6NfCJaWZWYGqcoVo740B819xKjzdQC/oQadlCMsVKTXru1ye0iiB/6E6cHp8WPP6cDsMb9YhTma9ApuOAuKVTjYNhrxvNlkIuWY586ti3m8TMbO0vPwxg14eMN65ErGPqvb58NzZ87ie+++C7NjbLG/rmIOfnv9dViYN7462ZFLfXhgzx5cGJp6IzM3l11dlTNnzkQ8V1ekIhnoM8U9a8vwvVeJgDBXzn8E8Ot0tJt2LcbvByy2SCvP0W4T9DTd/9b5mZs9GJj1kEgY/cLBxoVEpVJN+Z5/23IZfnz51nHCAbIxxsc9SxbjF2GlmEtycvDcbV+MEA6G1WWleGHXLuSyyJrIpl9nzpyF1RpZBm5FRerLTsSiQCHEwtLQDPg9WlIj5WTE2clsc0WkCzrSGdjlzZGJsHxOWj77pCjEfKyrjj4gjh2b2hVIrY7d//qiQnx388aY77mroR4NxYFSc19dvQp50sldPObm5+HZ226dsl8azdQq1uHDh6I+v6w88zX+r6wPVe9hrqC70tFmRgSEEY5R45gptMfgRNOlwKbhpnkFacnBOxU3LCkiuYYnsnfv3mmf+ydXXgkei8Dlf1y1CjkyGe5fsXzK924sL8d1U2SgZ+Mm09wc6aS4rkaLgiyI7FxcIg/3zXogHW1mzF3W7nTDag+oVB+2jrmSb6lLuzdBVDQyIa5pjAw/+Oijj6d13tr8fFxZXcXqvTctXIhdjYugYlFsk+HLy5ZOq28M+/bti3juusWpLZoaDysqQrPzanpLKXxfSlIwjHHJPHlsNjOLmGwunKIuJxvr8pArz44AKYYr5muhVYwfnE6ng1WeLG2U9QLDNTGK9U8kVyohC3m2bKuuhjDGLFFXF9u4MDqqx+efj1chr15UlLI0T/Hi9/vRWCCFcMzD4u5Ut8kftiQ/A8Oo3YvXW/T4zb4+PH44dmTaW2eGYbQH+rBtQQorRCaATMTH17ZWRyzY9+/fP+WxJcUlUZ+/f+XU6lI4lUr2plU+j4ettTWT96kkep+CfPrpJ+P+X1SmJjXfswWD2QGpgIdFRaH10F2pdoHnD0QpGJMoZqcXL50ZwaMH+3C81wSTY2rhO9AZmD3qChQoVmafK3lVrgT/cmXtuPXIiRMnpjxOKo00U1dqc1HLci8iUTZUVEz62lRrkHD1qq5Ija9vqUaUZVhGcLm9sATKsuGy2pABRUNNvimD3292JaU449FeC353qB9NAxbWAf/dRhdsroAKVl8og95kT2qW+GRRmyfFV7fUQCoKDDA2KpZMFml2XTrFFTwZLJtGG4cOBSxYtQUKfH1L5cRYjIzh9fkwErZxmyvlo1obWqx/JZVt8z1eHxnUidJtdOOxwwN4s2UEjkB9PyeA39OEDzE52h3YDBUL+agvlJOrhMGUnY5+jSVy/GDHPMwrUuHgwYNTxqjX1ETG9lSwMLNOl9VzorsqFRTEVl9NJhPOnjpJKnt958paqMRZYEqk6E2OiBJ+9cUhNWtBKssjkAn07GBiAT4tww48eaQPg2Mpe07QlD1fDSvhHBWvn4eW4UC7c/NlkAoDP4jV7obDmZ1J10pUInz3ymrcvb4S+6NYe8KRRtm3qNOk3ilUKRSiJoowlJfH9vFrOXkE372igrj4ZItaBTIeXLBHUdUbi8bN0Lenqn3yVbSPOGCJo4Kpxwe8e9GMF06Oi1t+hJrdgvlxYian7dTbQ1eFJROq144YbVmTlykaW2pzUKCPdMcIp6ysLOK5huL0ZK0pjbKrPpX7i6N5L0rS7Jc3FW6Pl6jd0WAuqPMLQ5/zllT1gTjXMDre/k4zrp43tTuB3QM8fXwI/WMbfccBfBHAxGS0Mcsrne4PzB5iAZ8shMPx+fwYGrWhKE8BXrbk/ZlA94mPsf6+H076enEUYXiptRVNAwMQCgWYk5cHDT85RgkH/NC73BgYGYHD78elKJWt5s6dG+MMfvQ1fZaUviQLj8eHoVFrzJJ+jFreGsipxkzNlwH4JNn9ENIKoptP91txxVwNhDHGo9Pjw5+ODmHIElKp3qLCEdcihpkbWgYDP+LSMiXEUbbOmavHiMGOPI08a3JjhWMz6NBz6lPMWRI96Xh5UR6UMgks9jG/sz/sP5DGHob1RatAY+Xka5CL+/fAbsyeTJB+vx86g3XK6mXzx1ceuzFVAvIEIyA2lweftBmxbZKdbEY4njkxHC4cf6Kux1MuYDx+HoRh4bwXR5xwUfVqVfnkiRnsTjcpEJqrzo4M7xM588afJhWQlQ1z8dtd88me0KjVjQGTA16PFx7wMWrzwEY9df3gweNPTOnnwQ9hWOaX/BxlKMhMKZegUClCWY6EeKQuro+eudPrduHE7t8n1H6qGDXaY4ZFBGHUrIZiZdDIdCuAh5PdFyHNhbuDmQn2dRhQliPGgoLxA3LU7sFfjw9ixBZaPH8NwP9Mce5QusQRmxtFYa7Sp2iZA7VUiIIp3O0tNhdxjc9RpjcfExsGWo9jtLsV2orI3XE+jQnRygTkVpef2f67JwkDbv/sXZiHsyPNqM/vx6jBBnscRprFxfKggJTShIPR44UTJHjpYgY8SXnx/MmhcVYtZuaYIBz/LwvhQPiaxBV2NXB5/WimuXgXFrHzEDVZnDBbszMRwtm3n850F1jhtETmxPI47Ti5+7GM9CcaBpMjLuFgmFsgJ4kOKUmPNgyemVFAbwsurF8+PYxnTujwevMIfnd4IFw4mLn4RyzPHYo40lnHzHTtemeoBmGtlr3VxGB2ZKWQXDzwBkyDkVF9Fl1fRvozGf0tRyOea3rnmayZPZjfN+i8Gg98+FGjDc3OU/v8x33+MT4CcAUA8su26aw4fskCU8BPilFsf0L3N9gSik/VO8ZMyO26wFQvFPBQF2elXOZLNFqSW3ohGez97cNw28dbjnpOJH29OC3splEcefZXgN8Hj9OBo8//Bp+/8rtMd4vArDmmc/EL00TKaVWCpDExhvIwgDK6fX8vDUw5Q9WqROpxHQGwWm8fE5A+Wp6qQC5KyNeeUbc8Xh/ycrKjdiGDvvci3vyP+3DVdx6DTJ0HXUczLuzfk+luRXD2nWfQsvcF+Dwe+P2Z32diNIkRoz3qRmA81IzXRBYDODjdvgWZLMj4cXqbLscYAblkDFz1XT6gj+a8qslPfIDb7G74fFZiAuZniQ2YWazv/tebocgrhrGvg6bIyz687uQ5p04HZkGu09vgdE3fa0ItERA/OerqtIEuBZJCqp0KPmT+jFpdMDl96Bi1h3bIqzTTi1BzOD0YGrGS/ZJswWHWY6SzBR5X9qmB2YTb7cWgzpIU4QgSttm8LWknTYOAvBV80G1womcsUTUqcqdv9mSEY3DEEnKD5sh+TFYnBkYsEc6H0yUsC05JsDpAMki1gNiDhT/PDdtgdgW+lIpcGSRJCjz3+0H8dZgFPEf2wqw3mN/JmKLfqXL8BTdpobjpSHTErFbntwzaoKT1RFRJqCsyEbPVSaZsbY5s0pQ9HJnB5fZi1GhjtTueKCXqcQv1pIVBpsOx+SlQh0ijPaBzVoVJu8PjR8uQHZ/1WtFrmp41g/khBnQWIiz+LAy8+nuDWYgbLQ6iBidLOFxeP073W8l4uRQ2XgTwQyEJXe+nn72Cko4ZpAlAb3jSYUbanR4f9ndZcKjLBE9YRdhdS4qwqHB665PgplOeRs7NJhmCuVjp9FZ4k1XplfJKkx6tg2NZR0s0cmypVmN+vgQlajEuDpOL8KJktZfO0XNV8IGPx8ObLaNoG7GFQmzLNFJcNT8P1RoRcYGfLj6fnwgJc3aJSJC1bvOzDeZ7N1qc0BvtSauCHE6hQgixSAid1QWPzw+Lw42zAxY0DztIrjGjgwgIc4X9RTLaS9eoUQG4MFE3FPJ5WFKmwvJSBcrUqUtMxufzoFZIoFJkV0DQbIJRaRnVNlrWzFTg9PrROmzH4W4T+oxRd+GXhdW8TJh0CMhOAD8DEIrYYa7mq+aosalKBZUkfZOYWCSARiWFRJy5JMyzEQcJS3BmbE/q4qgTH7UZcckQ4bH8PM3jGzP8OxapEhA+zVn0IIA1wSdlIgFWlKuwao4qKRVyE0UmFUElF3OCMk0cLg/MFie5zwbODdtxos+K1qFxfnFOWsX5jwBOxXvOZAuIlM4Y/xq+UMqRCrG2SoNlJfJQcoZsQCYRksAiiZhbo7CFUaXsTg9Rp1zu7PFiCGfA4sHBLjOaB8xknRLG09SvsIPtuZI5KhoAvEDvQ2yp0+KyalXaFjuJIBLyoVHJIJVwM0osrHZXyFl0JmBw+LC7aQRdo+OCXt20tsiPwoP6JiMZ47aSusKH8qQyi+/VFTnYXK3OqhljKgR8HpRyMRRycXhl1b9rvF4fceVhFt8zdW+px+TGBxcN6BoZJygDAL4B4OVYx05n9MoAfJ+qU2SlzQgGs8bYVJ0DpXhmDzCJSAC5TAS5VBxRDWu24/X5iMc0M2Okcvc73XQb3djTMoJh8zirVyvNrfBBtGMS/eU3APgLgFAe/9IcCXYtLoQ2jQVB0wGzNJGIhFRYRLN2rcLMDla7m8RmZMuiOxV4/Twc6zXjgwujcHvHzYi/oBavcU8m8mv/kJ6IBHSopUJcVqPBslJFRqrSphNmJpGKhWTNIpOKZvwuPbPItjvdxP2cEYoZqkElhN7uwXsXDKH0U5TPAfwTgFB+pniGdAmAJwFcHXxixZwcXDk3J2meuTMNRmAkYiGkYgGpyyEWCbJWHWPUJkYgPB4fcep0ur1p2dDLdi6MOvH+eT2GxtQuO50ESJFQtr9mA4B9NIMdlGIBblxchLrc7Ciskk0wswszy4hFQggEPCI06VbLfH4/mRU83oBQMAIxm9YSycbtA7F2NY9P4v5nAPez+eXq6ZRD8pKW5kjxxcV5ZG8jE9g9gGyGWWOFAj4RFmaWEQp44PMD/wv4fLLGEQj4rEOHmat+0MzKzAper59Ymrw+P9nJZl6bqTOD0+uHkPlueJnp/+f9DrzdPBS+d/LeVL/KCgB7AZB0i0vLVLhugTZj2b8dHj8ePzKAb6xPfZ0NjvSzr9NM3Nm31U6ebTPVjNq9+POxfhhpJp5YQ72Emr6IcKyrycON9ZkTDoZjvWaMWF3glIXZid7mwr52PYzOzO3Qa2UCfGVtGVSygPNsrOH+y6BatbJchatqU1oKbkrMLh8Od5uhkQozV5qXI6Xk01LTBzrNGe2HUsTD/auKkCMVTDrWlgK4k3kwJ1eGHQu16e3hBLx+4OXTQ7A4PVjAMl0px8yjvjCQSPBItxEdhswm4siR8HH3ytJJBSRUsefKuZqM+1Ht6zShi2ZEWTtWJ5tjlsFoB4toMaU9TTrY3ZlVpvNl/EkFhBTnLlRJMCcndYFMbGjXO7GvPZB4eVGxAhrpzN6c44gNc0EWC/gYtbnx/KlhYpjJJJMJCAkKV2d4MDYN2vDc8UFiwpSKBLhibupr/HFkFrVEgM21gd+5S+/AX08MwZ5BIZlMAtYCWMZMcavmqIgTYjphvo4P2014+9wIiWtm2r9jWSGKVdzG5N8DFRoxug0u4g5icnhIuYy5+TLIRek3z0wmIMwK6U6Pzw+HB5iXxuIvLq8fL58dxfGesRqg1y7IQ31R9iSr5kg9CwplaNU5YXN54XD7cKTHDK1CjCJl+i6SzBJoMgG5CGA7I8yDFjfkYkFKkyqAzhpNg3a8ckaHbv1YbPG2eXlYV5FZEzNH+mG0hvmFMlwyusgswtAyZIPO7kWpWpryOCOnx4fnTg7HNFBVA3g3mGyhNl+Oy+tyUaZKrp+Hz8/DyX4rjvaY0G8a89NXSYS4YVEB6rSZNRJwZBan1489zSM4OzDmdcvj8bCoWIn1VWqUKJM7Hr1+4PNLFnzcZoTN5ZnSgssIySs0hQqhsVSN1eWKaVu3hm0+HO81EeGwR4k/2FKnxZZqzqTLAQyY3Xj+tA6GKEnKq/LkaCiUYXGpEtPJA2L3+HFmwIajvRYMh+UPZjNPMcr/ozSkNiSuOTIRmVUqc8SkECefz0eBQhzhaObx8zFscZDF9rDVg26jC50jNmLGm0hhUTGGBgdC/yskQiwqkpNyv8VqMeQzKHyXY3oMWT3oN7vRNGjF+bAsJSq1Gm63Gw77+BQ/Aj6fJLCeo5GgVC2GSsyDRCwiAXwTR43Fw4PJ5iCOr30mF6k80D5im5gFsgfAv8Uz4ooA/AutZViW2MeORKlSYcXajbjj/gewYet2fH74AB792Y9x9OC+iPfmysWkrLFGJoRGwoNCKoZawgcvC6olcSQCD16eADqzgyyIB0xO6GweDFpcJF4lnFxtHq78wk587Ts/gEAgwCt/eQpvvvICWpvPJLtT+2iaoD+DbTwIny/AirXrl67asHlD/eJlG10ux41739oj3ffBuzAZI6unToVILMbGrdtx9Q0345qbbgFfEGkruHiuGU8++hu89/puOCYpYcwx+ymvqML9//Rt7LzzXqKlTKS/twd7XnoWb7z8HNovnE+ojdp5C3DjbXdh0bKVbZ1tF/7WdOrEgYMff/BRX0+3PqaA7Lj5i9vuvP/Bby1eserKyRJdG0Z06Lh4HhdbWzDYdwm64aGI9xQUFqGwpBRlFVWYV9+A/MLiuD7Amc+P4Phnh9B85iQuNJ9F+4VWeDyzN27675XikjKUV1VjwaLFWLV+E5atWQ9tfgHr4/1+Pzovnse5s6cxqhtGT2c7HI7xmX0kEgnmVNUgNy8f8+oXoW5B/aQBbXabbTCmgPz893/62Y6dX/wmzWCSVdisFvIFcIIy81EolKioro2qSWSaKVWsgqJizar1mzev37pt07LV6zZX1tQlrXoPB0cWYjh64NNPjx7cd+DogU8PxG0WUqrVgsrqukULFy+dm5uXX1JaPmchAEHt/IX5Eqm0smHJcmZOrEhN3zk4poWjr6f7gn5UZ+nv7TmvH9E5AeiaTp3o6O/tbunt7uzoarvYF35Ayuymc6pqclTqnGqlSiWqqKmrA6AqLZ+jyM3LrwFANlEUKjW/sqa2jNZj5zcsWa5lVNFsVOk4sgbD0EB/9/BgvxuA02ax9HS2XTCGv95+vrXDbrf5HHZbd/v51mEAlvYL5y447Pa4zZ1Zu7GQk6sVzFvYMIealIViiRRLVq4upqlOiQBV1tbJCotKSgAUBj2Q5UolI2iFVOi0aSozxxEbZqWss1rMQ82nTpjCnjcAGGg6dWLIZrUwg9cLYHhooP9SV9uFYFih2WqxtDefPhG/uTQJZK2ApJqS8jmSXG2+itEaaYGfca4BAoEA8xctZl5TUIGU0PdOSu38hXKplKSWlFNHUFFQcOnx6fSbsQKh8P3gYLMD8PT19jj1I7pYBSE99L3McQ79iM7W39sTrUoN0wYz4E3tF85ZHXb7zEynwsHBkRic+sHBEQNOQDg4YsAJCAdHDDgB4eCIAScgHBwx4ASEgyMGnIBwcMSAExAOjhhwAsLBEQNOQDg4YsAJCAdHDDgB4eCIAScgHBwx4ASEgyMGnIBwcMSAExAOjhhwAsLBEQNOQDg4YsAJCAdHDDgB4eCIAScgHBwx+P8DAAD//5PYFFrBhVFBAAAAAElFTkSuQmCC;fontSize=16;labelPosition=center;align=center;spacing=-10;" parent="-sU8y2Q3AdZbQh8XbGMl-1" vertex="1">
                    <mxGeometry x="-1290" y="290" width="75" height="75" as="geometry"/>
                </mxCell>
                <mxCell id="RzkMcw_4I33QUB7uwgBQ-2" value="&lt;b&gt;Security Framework&lt;/b&gt;" style="whiteSpace=wrap;html=1;verticalAlign=top;fontSize=13;dashed=1;sketch=0;shadow=0;glass=0;rounded=0;fillStyle=zigzag;fillColor=#13344C;opacity=10;" parent="-sU8y2Q3AdZbQh8XbGMl-1" vertex="1">
                    <mxGeometry x="-890" y="1650" width="1630" height="140" as="geometry"/>
                </mxCell>
                <mxCell id="RzkMcw_4I33QUB7uwgBQ-4" value="Firewall&lt;br&gt;Access Control" style="aspect=fixed;html=1;points=[];align=center;image;fontSize=13;image=img/lib/mscae/Azure_Firewall.svg;rounded=0;dashed=1;labelBackgroundColor=none;sketch=0;fillColor=none;" parent="-sU8y2Q3AdZbQh8XbGMl-1" vertex="1">
                    <mxGeometry x="-280.0000000000001" y="1685" width="50" height="50" as="geometry"/>
                </mxCell>
                <mxCell id="RzkMcw_4I33QUB7uwgBQ-5" value="Role Based&lt;br&gt;Identity and Access&lt;br&gt;Managaement" style="aspect=fixed;html=1;points=[];align=center;image;fontSize=13;image=img/lib/azure2/management_governance/User_Privacy.svg;rounded=0;dashed=1;labelBackgroundColor=none;sketch=0;fillColor=none;" parent="-sU8y2Q3AdZbQh8XbGMl-1" vertex="1">
                    <mxGeometry x="-116" y="1680" width="49.88" height="53" as="geometry"/>
                </mxCell>
                <mxCell id="RzkMcw_4I33QUB7uwgBQ-21" value="Logs and Auditing" style="aspect=fixed;html=1;points=[];align=center;image;fontSize=12;image=img/lib/azure2/analytics/Log_Analytics_Workspaces.svg;shadow=0;labelBackgroundColor=none;sketch=0;strokeColor=#000000;fillColor=#F5F5F5;opacity=20;" parent="-sU8y2Q3AdZbQh8XbGMl-1" vertex="1">
                    <mxGeometry x="40.5" y="1671" width="64" height="64" as="geometry"/>
                </mxCell>
                <mxCell id="RzkMcw_4I33QUB7uwgBQ-24" value="&lt;b&gt;Monitoring Famework&lt;/b&gt;" style="whiteSpace=wrap;html=1;verticalAlign=top;fontSize=13;dashed=1;sketch=0;shadow=0;glass=0;rounded=0;fillStyle=zigzag;opacity=10;fillColor=#13344c;" parent="-sU8y2Q3AdZbQh8XbGMl-1" vertex="1">
                    <mxGeometry x="-890" y="1490" width="1630" height="136.75" as="geometry"/>
                </mxCell>
                <mxCell id="RzkMcw_4I33QUB7uwgBQ-22" value="Metrics" style="aspect=fixed;html=1;points=[];align=center;image;fontSize=13;image=img/lib/azure2/management_governance/Monitor.svg;rounded=1;shadow=0;glass=0;dashed=1;labelBackgroundColor=none;sketch=0;fillColor=#F0F0F0;opacity=20;" parent="-sU8y2Q3AdZbQh8XbGMl-1" vertex="1">
                    <mxGeometry x="-816.0899999999999" y="1532.75" width="51" height="51" as="geometry"/>
                </mxCell>
                <mxCell id="-sU8y2Q3AdZbQh8XbGMl-67" value="Cost Alerts" style="aspect=fixed;html=1;points=[];align=center;image;fontSize=13;image=img/lib/azure2/general/Cost_Alerts.svg;rounded=1;shadow=0;glass=0;dashed=1;labelBackgroundColor=none;sketch=0;fillColor=#F0F0F0;opacity=20;" parent="-sU8y2Q3AdZbQh8XbGMl-1" vertex="1">
                    <mxGeometry x="-473.18" y="1535.75" width="59.82" height="50" as="geometry"/>
                </mxCell>
                <mxCell id="LqsbPOSO8fhI4KLYFztt-0" value="&lt;b&gt;Databricks&lt;/b&gt;" style="whiteSpace=wrap;html=1;shadow=0;labelBackgroundColor=none;sketch=0;fontSize=13;verticalAlign=top;opacity=30;fillColor=#5fc0c5;" parent="-sU8y2Q3AdZbQh8XbGMl-1" vertex="1">
                    <mxGeometry x="-345" y="828.5" width="1080" height="106" as="geometry"/>
                </mxCell>
                <mxCell id="Di1-USpRyvqkzYzBd52W-26" value="Clusters" style="whiteSpace=wrap;html=1;shadow=0;labelBackgroundColor=none;sketch=0;fontSize=13;fillColor=none;" parent="-sU8y2Q3AdZbQh8XbGMl-1" vertex="1">
                    <mxGeometry x="515" y="863.5" width="175" height="31.5" as="geometry"/>
                </mxCell>
                <mxCell id="Di1-USpRyvqkzYzBd52W-30" value="" style="aspect=fixed;html=1;points=[];align=center;image;fontSize=12;image=img/lib/mscae/Databricks.svg;shadow=1;labelBackgroundColor=none;sketch=0;fillColor=none;" parent="-sU8y2Q3AdZbQh8XbGMl-1" vertex="1">
                    <mxGeometry x="-316.78" y="840.5" width="41.67" height="40" as="geometry"/>
                </mxCell>
                <mxCell id="Di1-USpRyvqkzYzBd52W-27" value="Notebooks" style="whiteSpace=wrap;html=1;shadow=0;labelBackgroundColor=none;sketch=0;fontSize=13;fillColor=none;" parent="-sU8y2Q3AdZbQh8XbGMl-1" vertex="1">
                    <mxGeometry x="330" y="862.5" width="175" height="32.5" as="geometry"/>
                </mxCell>
                <mxCell id="LqsbPOSO8fhI4KLYFztt-53" style="edgeStyle=orthogonalEdgeStyle;rounded=0;orthogonalLoop=1;jettySize=auto;html=1;entryX=0.2;entryY=0;entryDx=0;entryDy=0;entryPerimeter=0;startArrow=none;startFill=0;endArrow=classic;endFill=1;strokeColor=#13344C;strokeWidth=2;fontSize=13;dashed=1;dashPattern=1 1;" parent="-sU8y2Q3AdZbQh8XbGMl-1" source="Di1-USpRyvqkzYzBd52W-28" target="LqsbPOSO8fhI4KLYFztt-33" edge="1">
                    <mxGeometry relative="1" as="geometry"/>
                </mxCell>
                <mxCell id="LqsbPOSO8fhI4KLYFztt-55" value="Stores&lt;br&gt;and&lt;br&gt;Retrieves Credentials&lt;br&gt;via Private Link" style="edgeLabel;html=1;align=center;verticalAlign=middle;resizable=0;points=[];fontSize=13;" parent="LqsbPOSO8fhI4KLYFztt-53" vertex="1" connectable="0">
                    <mxGeometry x="-0.1604" relative="1" as="geometry">
                        <mxPoint y="27.25" as="offset"/>
                    </mxGeometry>
                </mxCell>
                <mxCell id="Di1-USpRyvqkzYzBd52W-28" value="Access Tokens" style="whiteSpace=wrap;html=1;shadow=0;labelBackgroundColor=none;sketch=0;fontSize=13;fillColor=none;" parent="-sU8y2Q3AdZbQh8XbGMl-1" vertex="1">
                    <mxGeometry x="51.5" y="858.75" width="175" height="30" as="geometry"/>
                </mxCell>
                <mxCell id="LqsbPOSO8fhI4KLYFztt-52" style="edgeStyle=orthogonalEdgeStyle;rounded=0;orthogonalLoop=1;jettySize=auto;html=1;entryX=0.711;entryY=0.006;entryDx=0;entryDy=0;entryPerimeter=0;startArrow=none;startFill=0;endArrow=classic;endFill=1;strokeColor=#13344C;strokeWidth=2;fontSize=13;dashed=1;dashPattern=1 1;" parent="-sU8y2Q3AdZbQh8XbGMl-1" source="Di1-USpRyvqkzYzBd52W-29" target="LqsbPOSO8fhI4KLYFztt-19" edge="1">
                    <mxGeometry relative="1" as="geometry"/>
                </mxCell>
                <mxCell id="LqsbPOSO8fhI4KLYFztt-54" value="Mounts&lt;br&gt;Paths&lt;br&gt;via Private Link" style="edgeLabel;html=1;align=center;verticalAlign=middle;resizable=0;points=[];fontSize=13;" parent="LqsbPOSO8fhI4KLYFztt-52" vertex="1" connectable="0">
                    <mxGeometry x="-0.1289" y="-1" relative="1" as="geometry">
                        <mxPoint x="-0.5" y="25" as="offset"/>
                    </mxGeometry>
                </mxCell>
                <mxCell id="Di1-USpRyvqkzYzBd52W-29" value="Storage Mounts" style="whiteSpace=wrap;html=1;shadow=0;labelBackgroundColor=none;sketch=0;fontSize=13;fillColor=none;" parent="-sU8y2Q3AdZbQh8XbGMl-1" vertex="1">
                    <mxGeometry x="-163.5" y="858.75" width="175" height="30" as="geometry"/>
                </mxCell>
                <mxCell id="RzkMcw_4I33QUB7uwgBQ-43" value="" style="outlineConnect=0;fontColor=#232F3E;gradientColor=none;strokeColor=#232F3E;dashed=0;verticalLabelPosition=bottom;verticalAlign=top;align=center;html=1;fontSize=12;fontStyle=0;aspect=fixed;shape=mxgraph.aws4.resourceIcon;resIcon=mxgraph.aws4.cluster;shadow=0;labelBackgroundColor=none;sketch=0;fillColor=none;" parent="-sU8y2Q3AdZbQh8XbGMl-1" vertex="1">
                    <mxGeometry x="518" y="867.75" width="25" height="25" as="geometry"/>
                </mxCell>
                <mxCell id="RzkMcw_4I33QUB7uwgBQ-44" value="" style="outlineConnect=0;fontColor=#232F3E;gradientColor=none;strokeColor=none;dashed=0;verticalLabelPosition=bottom;verticalAlign=top;align=center;html=1;fontSize=12;fontStyle=0;aspect=fixed;pointerEvents=1;shape=mxgraph.aws4.notebook;shadow=0;labelBackgroundColor=none;sketch=0;fillColor=#13344C;" parent="-sU8y2Q3AdZbQh8XbGMl-1" vertex="1">
                    <mxGeometry x="342.1200000000001" y="868.75" width="17.44" height="20" as="geometry"/>
                </mxCell>
                <mxCell id="RzkMcw_4I33QUB7uwgBQ-45" value="" style="verticalLabelPosition=bottom;html=1;verticalAlign=top;align=center;strokeColor=none;shape=mxgraph.azure.storage_blob;shadow=0;labelBackgroundColor=none;sketch=0;fontSize=13;fillColor=#13344C;" parent="-sU8y2Q3AdZbQh8XbGMl-1" vertex="1">
                    <mxGeometry x="-156" y="865.5" width="20" height="15" as="geometry"/>
                </mxCell>
                <mxCell id="RzkMcw_4I33QUB7uwgBQ-46" value="" style="outlineConnect=0;fontColor=#232F3E;gradientColor=none;strokeColor=#232F3E;dashed=0;verticalLabelPosition=bottom;verticalAlign=top;align=center;html=1;fontSize=12;fontStyle=0;aspect=fixed;shape=mxgraph.aws4.resourceIcon;resIcon=mxgraph.aws4.saml_token;shadow=0;labelBackgroundColor=none;sketch=0;fillColor=none;" parent="-sU8y2Q3AdZbQh8XbGMl-1" vertex="1">
                    <mxGeometry x="59" y="864.75" width="17" height="17" as="geometry"/>
                </mxCell>
                <mxCell id="LqsbPOSO8fhI4KLYFztt-13" value="&lt;b&gt;Network&lt;/b&gt;" style="rounded=0;whiteSpace=wrap;html=1;shadow=0;labelBackgroundColor=none;sketch=0;fontSize=13;verticalAlign=top;fillStyle=zigzag;strokeColor=#13344c;fillColor=#f99007;opacity=20;" parent="-sU8y2Q3AdZbQh8XbGMl-1" vertex="1">
                    <mxGeometry x="-340" y="1250" width="1075" height="180" as="geometry"/>
                </mxCell>
                <mxCell id="LqsbPOSO8fhI4KLYFztt-14" value="Virtual Network" style="aspect=fixed;html=1;points=[];align=center;image;fontSize=12;image=img/lib/azure2/networking/Virtual_Networks.svg;rounded=0;shadow=0;glass=0;labelBackgroundColor=none;sketch=0;strokeColor=#0E8088;fillColor=#B0E3E6;" parent="-sU8y2Q3AdZbQh8XbGMl-1" vertex="1">
                    <mxGeometry x="-307.50000000000006" y="1270" width="50.25" height="30" as="geometry"/>
                </mxCell>
                <mxCell id="LqsbPOSO8fhI4KLYFztt-15" value="Route Tables" style="outlineConnect=0;fontColor=#232F3E;gradientColor=none;fillColor=#5A30B5;strokeColor=none;dashed=0;verticalLabelPosition=bottom;verticalAlign=top;align=center;html=1;fontSize=12;fontStyle=0;aspect=fixed;pointerEvents=1;shape=mxgraph.aws4.route_table;rounded=0;shadow=0;glass=0;labelBackgroundColor=none;sketch=0;" parent="-sU8y2Q3AdZbQh8XbGMl-1" vertex="1">
                    <mxGeometry x="-316.78000000000003" y="1340" width="59.53" height="58" as="geometry"/>
                </mxCell>
                <mxCell id="LqsbPOSO8fhI4KLYFztt-16" value="Subnets" style="whiteSpace=wrap;html=1;labelPosition=center;verticalLabelPosition=middle;align=center;verticalAlign=top;sketch=0;fillStyle=zigzag;fillColor=#F0F0F0;fontSize=13;" parent="-sU8y2Q3AdZbQh8XbGMl-1" vertex="1">
                    <mxGeometry x="265" y="1289" width="449" height="116" as="geometry"/>
                </mxCell>
                <mxCell id="LqsbPOSO8fhI4KLYFztt-43" style="edgeStyle=orthogonalEdgeStyle;rounded=0;orthogonalLoop=1;jettySize=auto;html=1;exitX=0;exitY=0.5;exitDx=0;exitDy=0;startArrow=none;startFill=0;endArrow=classic;endFill=1;strokeColor=#13344C;strokeWidth=2;fontSize=13;entryX=0.5;entryY=1;entryDx=0;entryDy=0;" parent="-sU8y2Q3AdZbQh8XbGMl-1" source="LqsbPOSO8fhI4KLYFztt-17" target="LqsbPOSO8fhI4KLYFztt-33" edge="1">
                    <mxGeometry relative="1" as="geometry">
                        <Array as="points"/>
                    </mxGeometry>
                </mxCell>
                <mxCell id="LqsbPOSO8fhI4KLYFztt-46" value="Private Link" style="edgeLabel;html=1;align=center;verticalAlign=middle;resizable=0;points=[];fontSize=13;" parent="LqsbPOSO8fhI4KLYFztt-43" vertex="1" connectable="0">
                    <mxGeometry x="0.7533" y="-2" relative="1" as="geometry">
                        <mxPoint as="offset"/>
                    </mxGeometry>
                </mxCell>
                <mxCell id="LqsbPOSO8fhI4KLYFztt-44" style="edgeStyle=orthogonalEdgeStyle;rounded=0;orthogonalLoop=1;jettySize=auto;html=1;exitX=0;exitY=0.5;exitDx=0;exitDy=0;entryX=0.5;entryY=1;entryDx=0;entryDy=0;startArrow=none;startFill=0;endArrow=classic;endFill=1;strokeColor=#13344C;strokeWidth=2;fontSize=13;" parent="-sU8y2Q3AdZbQh8XbGMl-1" source="LqsbPOSO8fhI4KLYFztt-17" target="LqsbPOSO8fhI4KLYFztt-19" edge="1">
                    <mxGeometry relative="1" as="geometry"/>
                </mxCell>
                <mxCell id="LqsbPOSO8fhI4KLYFztt-45" value="Private Link" style="edgeLabel;html=1;align=center;verticalAlign=middle;resizable=0;points=[];fontSize=13;" parent="LqsbPOSO8fhI4KLYFztt-44" vertex="1" connectable="0">
                    <mxGeometry x="0.8588" y="-2" relative="1" as="geometry">
                        <mxPoint as="offset"/>
                    </mxGeometry>
                </mxCell>
                <mxCell id="LqsbPOSO8fhI4KLYFztt-17" value="Private Link&lt;br&gt;Endpoints" style="whiteSpace=wrap;html=1;labelPosition=center;verticalLabelPosition=middle;align=center;verticalAlign=top;sketch=0;fillStyle=zigzag;fillColor=#F0F0F0;fontSize=13;" parent="-sU8y2Q3AdZbQh8XbGMl-1" vertex="1">
                    <mxGeometry x="310.84000000000003" y="1345" width="80" height="40" as="geometry"/>
                </mxCell>
                <mxCell id="LqsbPOSO8fhI4KLYFztt-18" value="Network Access Lists" style="whiteSpace=wrap;html=1;labelPosition=center;verticalLabelPosition=middle;align=center;verticalAlign=top;sketch=0;fillStyle=zigzag;fillColor=#F0F0F0;fontSize=13;" parent="-sU8y2Q3AdZbQh8XbGMl-1" vertex="1">
                    <mxGeometry x="-155" y="1385" width="185" height="30" as="geometry"/>
                </mxCell>
                <mxCell id="LqsbPOSO8fhI4KLYFztt-19" value="&lt;b&gt;Storage&lt;/b&gt;" style="rounded=0;whiteSpace=wrap;html=1;shadow=0;labelBackgroundColor=none;sketch=0;fontSize=13;verticalAlign=top;fillStyle=zigzag;fillColor=#f99007;opacity=20;" parent="-sU8y2Q3AdZbQh8XbGMl-1" vertex="1">
                    <mxGeometry x="-340" y="1018.5" width="370" height="180" as="geometry"/>
                </mxCell>
                <mxCell id="LqsbPOSO8fhI4KLYFztt-20" value="Data Lake&lt;br&gt;Storage Account" style="aspect=fixed;html=1;points=[];align=center;image;fontSize=13;image=img/lib/azure2/storage/Storage_Accounts.svg;rounded=0;dashed=1;labelBackgroundColor=none;sketch=0;fillColor=none;" parent="-sU8y2Q3AdZbQh8XbGMl-1" vertex="1">
                    <mxGeometry x="-310" y="1033.5" width="50" height="40" as="geometry"/>
                </mxCell>
                <mxCell id="LqsbPOSO8fhI4KLYFztt-21" value="Data Lake&lt;br style=&quot;font-size: 13px;&quot;&gt;Gen 2 Filesystem" style="aspect=fixed;html=1;points=[];align=center;image;fontSize=13;image=img/lib/mscae/Data_Lake.svg;rounded=0;dashed=1;labelBackgroundColor=none;sketch=0;fillColor=none;" parent="-sU8y2Q3AdZbQh8XbGMl-1" vertex="1">
                    <mxGeometry x="-300.20000000000005" y="1121.5" width="30.4" height="40" as="geometry"/>
                </mxCell>
                <mxCell id="LqsbPOSO8fhI4KLYFztt-22" value="Storage Containers" style="whiteSpace=wrap;html=1;labelPosition=center;verticalLabelPosition=middle;align=center;verticalAlign=top;sketch=0;fillStyle=zigzag;fillColor=#F0F0F0;fontSize=13;" parent="-sU8y2Q3AdZbQh8XbGMl-1" vertex="1">
                    <mxGeometry x="-170" y="1053.5" width="185" height="30" as="geometry"/>
                </mxCell>
                <mxCell id="LqsbPOSO8fhI4KLYFztt-23" value="Firewall" style="whiteSpace=wrap;html=1;labelPosition=center;verticalLabelPosition=middle;align=center;verticalAlign=top;sketch=0;fillStyle=zigzag;fillColor=#F0F0F0;fontSize=13;" parent="-sU8y2Q3AdZbQh8XbGMl-1" vertex="1">
                    <mxGeometry x="-170" y="1103.5" width="185" height="30" as="geometry"/>
                </mxCell>
                <mxCell id="LqsbPOSO8fhI4KLYFztt-24" value="IAM Access Control" style="whiteSpace=wrap;html=1;labelPosition=center;verticalLabelPosition=middle;align=center;verticalAlign=top;sketch=0;fillStyle=zigzag;fillColor=#F0F0F0;fontSize=13;" parent="-sU8y2Q3AdZbQh8XbGMl-1" vertex="1">
                    <mxGeometry x="-170" y="1153.5" width="185" height="30" as="geometry"/>
                </mxCell>
                <mxCell id="LqsbPOSO8fhI4KLYFztt-33" value="&lt;b&gt;Credentials&lt;/b&gt;" style="rounded=0;whiteSpace=wrap;html=1;shadow=0;labelBackgroundColor=none;sketch=0;fontSize=13;verticalAlign=top;fillStyle=zigzag;fillColor=#F99007;opacity=20;" parent="-sU8y2Q3AdZbQh8XbGMl-1" vertex="1">
                    <mxGeometry x="65" y="1018.5" width="370" height="180" as="geometry"/>
                </mxCell>
                <mxCell id="LqsbPOSO8fhI4KLYFztt-34" value="Engineers Key Vault" style="aspect=fixed;html=1;points=[];align=center;image;fontSize=12;image=img/lib/mscae/Key_Vaults.svg;sketch=0;labelBackgroundColor=none;" parent="-sU8y2Q3AdZbQh8XbGMl-1" vertex="1">
                    <mxGeometry x="115" y="1037" width="48" height="50" as="geometry"/>
                </mxCell>
                <mxCell id="LqsbPOSO8fhI4KLYFztt-35" value="Analysts Key Vault" style="aspect=fixed;html=1;points=[];align=center;image;fontSize=12;image=img/lib/mscae/Key_Vaults.svg;sketch=0;labelBackgroundColor=none;" parent="-sU8y2Q3AdZbQh8XbGMl-1" vertex="1">
                    <mxGeometry x="115" y="1117" width="48" height="50" as="geometry"/>
                </mxCell>
                <mxCell id="LqsbPOSO8fhI4KLYFztt-36" value="Firewall" style="whiteSpace=wrap;html=1;labelPosition=center;verticalLabelPosition=middle;align=center;verticalAlign=top;sketch=0;fillStyle=zigzag;fillColor=#F0F0F0;fontSize=13;" parent="-sU8y2Q3AdZbQh8XbGMl-1" vertex="1">
                    <mxGeometry x="235" y="1050.5" width="185" height="30" as="geometry"/>
                </mxCell>
                <mxCell id="LqsbPOSO8fhI4KLYFztt-37" value="Access Policies" style="whiteSpace=wrap;html=1;labelPosition=center;verticalLabelPosition=middle;align=center;verticalAlign=top;sketch=0;fillStyle=zigzag;fillColor=#F0F0F0;fontSize=13;" parent="-sU8y2Q3AdZbQh8XbGMl-1" vertex="1">
                    <mxGeometry x="235" y="1102" width="185" height="30" as="geometry"/>
                </mxCell>
                <mxCell id="LqsbPOSO8fhI4KLYFztt-38" value="Retention Policies" style="whiteSpace=wrap;html=1;labelPosition=center;verticalLabelPosition=middle;align=center;verticalAlign=top;sketch=0;fillStyle=zigzag;fillColor=#F0F0F0;fontSize=13;" parent="-sU8y2Q3AdZbQh8XbGMl-1" vertex="1">
                    <mxGeometry x="235" y="1157" width="185" height="30" as="geometry"/>
                </mxCell>
                <mxCell id="LqsbPOSO8fhI4KLYFztt-49" value="" style="aspect=fixed;html=1;points=[];align=center;image;fontSize=12;image=img/lib/mscae/Databricks.svg;shadow=1;labelBackgroundColor=none;sketch=0;fillColor=none;" parent="-sU8y2Q3AdZbQh8XbGMl-1" vertex="1">
                    <mxGeometry x="544.9999999999999" y="1305.52" width="41.67" height="40" as="geometry"/>
                </mxCell>
                <mxCell id="LqsbPOSO8fhI4KLYFztt-47" value="Databricks Workers" style="aspect=fixed;html=1;points=[];align=center;image;fontSize=12;image=img/lib/mscae/Databricks.svg;shadow=1;labelBackgroundColor=none;sketch=0;fillColor=none;" parent="-sU8y2Q3AdZbQh8XbGMl-1" vertex="1">
                    <mxGeometry x="545" y="1327" width="41.67" height="40" as="geometry"/>
                </mxCell>
                <mxCell id="LqsbPOSO8fhI4KLYFztt-50" value="" style="aspect=fixed;html=1;points=[];align=center;image;fontSize=12;image=img/lib/mscae/Databricks.svg;shadow=1;labelBackgroundColor=none;sketch=0;fillColor=none;" parent="-sU8y2Q3AdZbQh8XbGMl-1" vertex="1">
                    <mxGeometry x="577.1599999999999" y="1320" width="41.67" height="40" as="geometry"/>
                </mxCell>
                <mxCell id="LqsbPOSO8fhI4KLYFztt-51" style="edgeStyle=orthogonalEdgeStyle;rounded=0;orthogonalLoop=1;jettySize=auto;html=1;entryX=0.75;entryY=0;entryDx=0;entryDy=0;startArrow=none;startFill=0;endArrow=classic;endFill=1;strokeColor=#13344C;strokeWidth=2;fontSize=13;dashed=1;dashPattern=1 1;" parent="-sU8y2Q3AdZbQh8XbGMl-1" source="Di1-USpRyvqkzYzBd52W-26" target="LqsbPOSO8fhI4KLYFztt-16" edge="1">
                    <mxGeometry relative="1" as="geometry"/>
                </mxCell>
                <mxCell id="LqsbPOSO8fhI4KLYFztt-59" value="Provisions&lt;br&gt;Workers" style="edgeLabel;html=1;align=center;verticalAlign=middle;resizable=0;points=[];fontSize=13;" parent="LqsbPOSO8fhI4KLYFztt-51" vertex="1" connectable="0">
                    <mxGeometry x="-0.3835" y="2" relative="1" as="geometry">
                        <mxPoint x="-7" y="153" as="offset"/>
                    </mxGeometry>
                </mxCell>
                <mxCell id="LqsbPOSO8fhI4KLYFztt-60" value="&lt;b&gt;DBT Core&lt;/b&gt;" style="whiteSpace=wrap;html=1;shadow=0;labelBackgroundColor=none;sketch=0;fontSize=13;verticalAlign=top;fillStyle=zigzag;fillColor=#5FC0C5;opacity=30;" parent="-sU8y2Q3AdZbQh8XbGMl-1" vertex="1">
                    <mxGeometry x="-345" y="660.72" width="575" height="130" as="geometry"/>
                </mxCell>
                <mxCell id="LqsbPOSO8fhI4KLYFztt-61" value="" style="shape=image;verticalLabelPosition=bottom;verticalAlign=top;imageAspect=0;aspect=fixed;image=data:image/png,iVBORw0KGgoAAAANSUhEUgAAAgkAAAC/CAYAAAB0bk+5AAAACXBIWXMAAAsSAAALEgHS3X78AAAcRUlEQVR4nO3dX1LbSNfH8c5bcw+zAjwrwLMCyL2rQlYAufUNnhUEVhDnxreBFQxU+X5gBWOvYPAKHryCvCX1EQhHNlar1X1a+n6qqHn+TIJs2dJPp7tPf/j586cBAADY9H+8IwAAoAohAQAAVCIkAACASoQEAABQiZAAAAAqERIAAEAlQgIAAKhESAAAAJUICQAAoBIhAQAAVCIkIK7x6NSMR0POAgDoE37vhvFoYIwZVPw/T2Y2f1L5LqE5GwTOjDGncv6Ptvydj8aYhTHmwczmd7zzABBPmJAwHl3IzSG7SRzs+DfX+c3BmLv8ZzZ/5rORsPHo0BiTnfvJjlCwy1o+C1cESAAIr72QYG8QE/nZFQy24QaRqubnvsq1MWZKcASAcNoJCePRJL+5+7lBrPObAzeINNiq0dRjOChb5pWJ2XzR4XcQANTwGxLsE2T29H/SwgtcSVXhpoW/G02NR2cSDlyGFepYS1BgvgIAtMxfSLAT0+4C3CRWeRmbm4QO2eoEWzVqIxju8pnPAAC0y09IsAHhoaUS8zaPUll4CPg7UbCrVLJwcB7pPVnnk2EZegCA1jQPCfZmsQgcEMrupbLA5MYQ7JBSFg4uFRzNUoICc1UAoAXNmim9zkGIFRAyn4wx/5nx6EaOB20Zj67yfhY6AkLmWAILAKAFzSoJ49FU0Q3DsBKiJXbFwlWA+SauPjLsBAD+uYcEOw/hX6XnZC1DEKyEaMJOSpzKE7tmSzOb09oZADxrEhIeIsxor4uVEC7sPJObBM5vGasdAMAzt5Dgp4pQ9OjPhgWyuQTDFm9KrITYR7gVC7cyl+XhZVjIfqZOG7Rwvjez+Zn3IwWAHnMNCTcNbiTX+VNq1WqEdtr5lrESokr773thme/f8d77bydIfnX4+39nLgoA+OMaEp4dbib7r2tvv+/CrYQFbijttlEuq7dc0R7Xj5q/gyEHAPCofkiwk9n+cTiEehfw9idG9nslRLg2yoU/aldw6s97uTazOUsiAcCT3xz+GpdZ5Pe1n/CyisN4dNvi+PiBlLQneXl7Np+29Ht0idNG+dZxiGdSMyieOvwOtGfqeL1wEercd/E1AVu5hISBw59xXYo4DTCJLgsL3152ruzqssm4bZTd3lMbFFeK+zNgtzYnI8fSxdcEbOXScbF+inYdJ7bzF9ZOf7a+o3wMPCtx26ftbsgmJdqmV/9F3Gehyf4KdSoQdNwEAI+atWXez6rhnw+9gc9JPufChgWXqokeWtooN5vzUWfZKiEBADxyGW6oK9XlhieyJ8StDEOk8zr0t1Guo05QY2krAHgUopLQdPwu9tPheV7NyJ7KtW8glQ2TjEcLWTqoJyDYlSqu0q7mAEDCXEJC/a6FrmV7e1PWsG9AsRLiSSY46pK9v3a54D9K91lwm+Nhz3+dkBl6aAoAOs0lJLiUdC8c30RtbXaLlRBPUtKPy4aDG5mUqHnGtWuwqvvnCAkA4FGYSoLtRVCvVG//fa2NceKuhLArFq7kphhrxUIdR3K8+7NDFHVDAntzAIBH9UOCncBXd8XCgcNa+ZDdAF2FXwlhKxgLGf5ou5WyT1/3rr7YgHBT8/Ut2ZMDAPxy3bvBdQOex3zoYdfF3FYQshvEpwTP9b20efb7RGvfk7OOrFi4l9Uivw4NNNto6ktnG2GlK+R28h8C/Z4uviZgK9eQMJBxcFfFVsGLPDDYv6/YKvgisSfkKiuphDzstaHVNnZ/heIn9fdk00rmtzzICoZBg4vvyszmrILQh5DQDCEB0bmFBNN4u+g+WcnwwOJlzHyz0mBDUvnnlNavtVBF0ImQ0AwhAdE1CQmH8iTYtSdcpCWbixBqwx3UQ0hohpCA6NybKdlWu/3YORGa6etbAQAd0bTj4jTgBkzApkfvk0QBAC+ahQRbTeBJDrHw2QOAFjXfu8FOGGu60yNQ122jlSMAgHf52uCJJzqEprUbJwB0hp+QMJvfSaMkIIRruisCQPt8bhXNkx1CWLOqJhm6t1YH4knmu+EvJNhZ5vfe/j6g2lQmzEI/jduWA6ENpZPwVPpsPEvH4ST85vkgJ4nuuYA0ZO2XqVgB0OpUQsGwYat5NfyGBLsPwy3tmtESAgIADYo2+uVQkPrme5V8VxKMVBO6uCER4lqyPwOACMqVgSIU9Ob+5j8kZOPF49HUcStpYBuW2QJo22kpEGT/7P1Ge21UEoxM0JhQTYAntF8G0LYsIPzDu/yWzyWQr2jXDL/4LAFABO2EBEO7ZnhD+2UAiKS9kGBdcGKjWuc32XS7Ya5Z0QAA8bQbEuw4Mu2a4zmQ5ahZC+PPCZ6LKe2XASCetisJhidBFc7lPGRj+x8TCQu0XwaAyNoPCbaacMuJju5YWoIemtn8NIGwcEX7ZQCIK0QlwVBNUCMbfvjbjEcXeXjTGxay9stUEQAgsjAhwY4rf+dkq/HDjEd2WeFrWPisaDUKoRIAFAhVSTBy4V9z0tX4Zsaj1zbHs/mdmc2zLmPXkc/TI+2XAUCHcCHBji9TQtblXFpov7K7LA4iziOhigAASoSsJBgJCTRY0uUyn6NQlgW62fxC5iuEPF+0XwYARcKGBFtN4ElRnx+/BAXzMl+hGIIIgeZbAKDIh58/f4Y/mvHoqat7byfuz60tkMejbEe0G1lK2YZbqV7Aj9N8uavdyc7Ify8M3vn+LY0x5eWni9J/f9j45y4hLy4fAv2eh4A7A7bxmg5LuxyWf8yer2slzdmMvBfP8vlYbHxmUhRyg6fHje+kWrFCArtt6bTOLyDbuhyOR4dSCbr0fPS7fy/eU+xzX2xz21aQqzpvC7lpPMlNo3yzICQ04+M1DTc+G20+nK3k/Sl+Uvs+ExIqxAkJJr/hhPyyYX9LM5sPd/7b49GZVBV8bQV+LRMmsb9DGZ65CBgK9rWSsPAp4O8kJLwqPhuTyBXbpcxDu4tYZeA+89Z13SH/0BMXy7gp6HT8y4qHTdlySZuClx5eAe2X6xlIQPtfvoxVX0AwcmMKGRBgFZW+J/lsxB7SPc7nO9njiXW9P4z0e7WqPTE8XkigXbNml1It2M7OXciCwn3D10H75f0U4eA/2YsDKBtK9earxwqfLwdyXIvSHJlQNIbomGoPAcUbbjB52XogFz3os85vTPvcwG1TJpcb10pWT2C7tuaBdE2fhxsu5Ik9FV8k8IYQ8QanztqlshJzuIF2zbod7P1FtqsSvji8GoacdjuVpy8CArZJLSAYOV6GGMOrXrn2jrghwaJds16f3h12KNhWynWCAu2Xd5vKTGuWCmOb0wQDQuEywENCEqsHAko0JNCuWbsbWfr4vnpBgSpCtUOqB9jDUFYNpOwrDdSCclqSqqGSYGjXrNpBrRv6fkGB9svVhvJFZrIVdjmUgKBtgqKLHxEmM/aVUyUh7sTFMtsWONXSWR3LjQY0Txudz06Vlpj/qNXsyG5F/c3L39UPQ5kU14ULfwx9mbh4KMfQpSC5ks+/71VOfbmn7MvpO6InJJhOt2tevTQV2efmaFd9nClohlKWPf3XG+OrXvVA++VfERCa60tIcF1JpF3tJj97uJIhDdh7kNNKMm0hoWvtmlfSB8B9gp59T66UdA37WHuY4G1nTdov/4qA4EcfQkJXA0LhD8+tnAkJr+7lwbM2LXMSLHsDetRwKB5c5z0Ams7gtzsxnso4f+xVIC4TTM9K802mBIQ3CAjY10UPmmj5riTQbfGV03wEoy4kWBMNB9HASnZT9PuBt2Fj6KkVsqvjyi2ldx/3swQF2i+/deh5/wt011lPxtbPXUviWzAh8lWHQoJt95tqu+allNOdT8hO2VO43Xwp5vtTP/zY92O/7o390ea22+iOYcDuhBqwNLodzhVcjZUEk+gHZZmvTAhxI7QT/2IFhSMzHrkEBQLCqwkbIGEP2YSxf3tWbTpnmKAVnRpuKNo1p1RNWAcLCAUbFGINPUz2brCETQOeloCdfK1+YrjBajTPT2slwSR2IT2L9KR8GmkyY70GSyhjHgKwm6+QwPfMajRZXG9IsNWEptsQh3AdrXugDSaxJnpeSj8H7O9CyVJWQLNjzxMY+67RHLnflL95d8rHbletztgfj4YyPve8dTJkturBzhGI0XRp6rr2tocOFVZfltLlblHR7a7qf9tUbq5V7hrKplR6VJWaUwiqZw2vrYSMV41Cgq5mSpvsuPf/dB3UG1+87WRoX+uZ/Ay3XGjXsq7+IS9bF0MccVta12+w1E8aGrusJXjfBdgcKHRjtC42U9pmXdHavSgp1/kuDuVmOpTrjqbVNo8Nd3EcOoSMw46uOPq9Sctr3SHB/NKxT5O1l2V9NhxM5KfOGFrRd2CaH8N49BxpDK5+u+Z+itly/PWz4r8//i4hLy5dDgnL0sPBwnNXwrKBDInVvRa1pdHNzUFXg20jmicuFrQ+pd55CAhn8oX/6vClPJA/9yBBI9b7dCKvA9tdRAwIj/JUdRX4govmvkur4qHcuO9aDAhG/u4rCQvXCs4fqxMUICS4a1auHY+yp7q/PST249ITRix0Utwt1oZWt/J0RCvsNLUdCrZ5lrDwZ+Qt/KlQKpBCSNB5gZvN3UOC3R3x0uPRHEduZ30kW0PjV4NIw2W3EcMJumEhT/OxggIhQQH9IUHnhkDuTYzsSoQ2NmqJPYZ4RYOlSjGGYh4JCPDkOeIKJoYbFEihkqCR29iu3fa5q1uXHnRgc642hL5ZrwkI8CzWfjoHtGiOL5WQoG37aNfqRtc3avlKg6U3YiypumIOAloQq8cH1YTIqCS4qX8RtmP2fWgyQ7vmV6HHVNtt7oU+e4q0VwwhITJCghuXi39fSvHn0ikS4UMCAQFtilEJZbghslRCQtr97u1Ns0+tarlZWaFDQteHsxBX2106q/DAERmVBDd1P7h9azZ0IpM0+y7kfIR7miWhZTGGHKgkRKY/JOicCHdQ87j6eMPs+1Nt6HMe4ykP/ROzaRsiSKGSoLXcVOcm0McZ/0ey8VRfhf7csskWQgj9OWNr9cgICe7q3AD7unVunxsshXzdK5Y9IhA+Zz2TQkjQWqo/oSfAu4563GAp5OeWEjBCoWLVM7pDgn0K1VxuoifA+yY9rSaEfM2EBACt0F5J0L4qYN+eADGakGhx0NMlkSFXNhASEFLoDriscIhIe0hIYeLbPrP4+7407bxnQzOhL2p9/3yh2+iVEJHekGBvKinMbD2WnR13YRyvX0siQ1/UqCQgJEJpj2iuJKQ03v/1neV+rGGnwVKbuGgjJEJpj+gMCbaKcK7gSOr4sTUozOYLWabWd32Z6Bl6+SMAtEJrJSHVm8kP2e2xSt87EBqpJvShwVLI4QbWrQNojb6QkGYVoeybGY/uKpb9TXnqy7FsFEAdDG9EpLGS0IUn7k/5E142obEIC7P5c48bC5Ud7THREwAKzLmJSFdIsBPbutKr+yCf0GjDwjTvpzCbZxMYvys4ttj62mAJAJKirZLQxSfMLCxcGmP+NePRk0xqWys4rpgOOl5VodsigE7QExLGo7Me7Ph1JPMtDhQcS2xfO9xgKeTERUqxAFqjqZLQx9a9fcfchObYZAxd1ueW9iroCAl2WVxft1Pus3MaLDVGSEBoVMp6JH5IsBPYeKLsL849kBYmHfeIhkrChCpCr53IfBQA2ESzsMjihgRbRaB3AJiPAqQjZCWBkBBZ7ErCJOBM/zWTYNQ66li75pAXNuYkILTjgL+POQmRxQsJdvnb14C/8UC2bCYo6DTtUIOlkCGBoTp0GX1AIotZSYgxYe1Cqhd9b2akUdcbLLWJiWQIJeTKBkMlIb44ISHeJk7ZjehUfggK+kw63GCpTaEv3Oiv0IGUSkJksSoJMTdxmkg6JSjoc8CSSCdUEhBKyBDP9VmB8CEh/iZO9kY0my8ICiqdU02ojUoCQgn53aSKoECMSoKGJ0V7I7JBYcBkRnVS3y489MWNkIBQQn7WCAkKhA0JujZxsjei2bwYeniMfkQonCTerjn0ZCtCAkKhkuBHMveb0JUETU1zXm9EWVCYzbP/fBv9qFCgwdL+juiXgEBC9kigkqBAuJCgcxOnt2Xt2Tw7xi/MU1DhOOEGSzG6xLFRFtoWOogSEhQIExL0buKUdfp7uzZ/Nr+RC+4q2lGhcJVogyVCAroo5GeM4V8lQlUSNG/i9OuNyE5ozMZ576MdFYx8ZmiwtB82yULbQn4XHzp+NrXMzXtX+yFB/yZOB5Wz6e08hTOGH6KbJFpNCP0kdCAdRYE2nAaej3DHWdQhRCUh5CZOrj5tnU1vhx+GlL+iocHS/ggJaEvIicTrnsxHSGJVUrshIfwmTk3cbH1inc2fZPXDdSKvpWsuE2ywFOMid8LcBLTgqidVhNBziZK4prVdSUjpCfDo3eOdzbP//0+aL0WR2pLIWPvgU3WBT2cRHvT6EhKSCPTthYR4mzg1cfluE59sUuNsnpWJ/mKuQlDbh4R0ilUuPWGyJzwZRuh+uu7RfIQkJhu3WUlItbXu9mGHstl8ylyF4FJ6So45O/sbXRjR0FA+w6Hnk/VpwuJRCvOI2gkJ8TdxauJo74DzOleBFRBhnEhr71TEHJZ6ICjA0VmkgGA6sG9LXSEffJyuB21VElIfF/30S5OlXewKiGx45XuMg+2ZlOYmxKwmHMjvjzH0MGBuRJKKpnd/RwoIKwX9EUJXhvd/KK1nKFWKqbynP12rNB9+/vzp99Dsk97ffv/SaP6Uxkp1Xv9QTkyqlZQU/CXDPdplVaZ/FBzjo1yI2nxKO5Un0NDr6QsfAv2eh4Df7b8CheLihnIRebn6FwWVhJDnt+xRAn3duUynEu6G8jPY8f17dJks2UZIeFLcXbGuVf7G250i67H7DkwT6BGRonX+ZXA5L+E9K/sM3MuFcNHgqe1ULkbFhUlDIO5iSCiU+wYU5+xpYzb+PueyuEEM5OdUzp+Gz+dajin2d/oq8rL94lxvnt/D0nDBoWMQv3WZA/Gbwy/aTucmTk0cSYmm/qz6bAhiPLqTD92lphfVAQeSulMoad8pW+XzSX4Kq9LFqOpGU744abmh9M1BKZh0tUI5VRAQTMSly4XiXLdxnp1em79Kgl0RsOhYSCjcyg6Rbuxy0BuGILz7I588qpuWIYeu63Iloeu0VBGMBOF/FRxHG5yGc3xOXNS8iVNT57UmMm56XQXxkd0lvUqhkvDAOQd2migJCEYedLu6Us3pgcpPSNC/iZMP32Q4xd1s/mBm8wFLJr05l4mi2qXWLRIIZalw2WNXd6CMGBLS2MTJhx+Ng4J5s2TymrDQWAo34BvOM1BJYzOhrjZ0ihQS0trEyQdfQeFZ9oIYyKxTuDlJoF3zc8+qCUsZWuNzjV2ule722MWQ4Dzk6aOS0MemKX6CgnkJCxf5JDy7PA31pdClbdqTasJaJms+9KzFLupZKr53PHfwWuw8wbtZSEhzEydffjSazLjJTm48kycw9oOo58hbaGtPH6oJRUAoJqF1dWwXzawT2AGxa+2hI4WE/vXZ3pRNZvT7HtjJjaeEhdpSqGhddXyb8bON8vEz26pjw2aQ1OquY6uSIoQEO6vcdb3wUsajPsvN8Ivse5DiSclm2D/stXNkHa9h4UvHPqwrOdcf87bXxvwu//mvhqHoKJHNn9Tv+uboy5bKAdUElLm0Ho6lS0PpziHBvZmSfYKuO9SwzD8k2Q1w+9+bajvjVf4kVXevh33Z9+Uq8V4U1zJZczs7CfHO8fw3a3oVzkS2c+6KXXsMhNrLhWZK+mnYm6GuRaS9SHz76BrY3UKCfWr+X80/tczLTPv027dVilhblTbhvtfDvtINC19k6ef73M//2szmfis67XEJ2Rq91w/e5VrhgpCgVzHEkEoFoawrHRj/CL0Esm5Zd7V3QDB5qX3h8DtiWsvwSbsBwUiPhdeGTKkMQ9zvHRDMy/l3qQgcJNJcycjrS32J4D4bxjAvod+WcqNNMSBkFnJtT13wOQl1b+BXtW+edkgihYvorexIWP81NmFvusNEGjLVXwUym9853lxSqSSYxIPCskaQY15C/7w+OMXfNKmpq8QDfaOHSdeQUPdpzXW9tOZ11veywdBFtC2L3zZk0hoWHhtswuQyfql9adWmiwSfVJY132dCQr88yuejSxP/JglXxBqFNNeQUGc8/LHBTVTjxeUxnwSS9TTQsgOh7rDQ5BymWqKs6yqhzb+WDkvY+hwS+rSMeSnDoKnOP9jlWV5Xik2WAoeEkC1wYz2hV1vlSzazZYm7VmfElEZlAdUeEhg+cgkIpqfzElYS/E5lUuVnWfrbtfdhLaX4j/L57XLvnGcZak+t8helktAn63yJVzZZ0I6T60dYSNWzVBU0nrfvDZvg9Kma8F1umOXXfCcl66H0Bvks5zjFSkPR6+SzzAG66Nn5vZLVAtrP3UoCXKNz85u/4+mctaz9niqraOzPHveVGY+mcoGKsVvnIPDvS/NcvVWEhalcgC8irdW+l5vbnYf3NbtQXXo6Lq3W8qT53kX5ufS+FoYbP5qWWS7lNS3kn6lPRPThSULzUK6rZwqW7C9L58jbeQoREk7yvgouN9p4HfRuZUVGN74MccNCk+Epl/PfpbHQ55egasPWaenHd5+M9cYFxveTYdefNO8lzLmGqUXFZ3dQOu+HckMatNgjZSnHX9xgqo4Jv563YpXPWSk4tBnyVnJ+ivP01Ob3q34zJbsOvW5zif0b6bz9XaEbzjzmJ7wr4WAb2wwrZFj4WHsehz3GJ4fj+z3Zyk895RuIkQvTe8s/F6Wb2HPpBrAIVIG5abGyFGqu1LRiddc0wkqsQem93Dz3uz4L5e/h08YP2jlHg43P/a7P6nPF/iehv6dvuHZcrPuH6ncitBMk/6l9bG7ebxfdReHCgsv5nzqUp5dmNk+lmRIAqOc6cbHuDN2jPMHuuwmSrVaESOYrqXIMexcQTNAJjkf5+dz//F84jl+zHh8APHINCS4X42MJCrvLgvYG0fa+DWvZbGjgNAzSNWHCwkleLtt1/sejgRmPsnD4w/F3cC4BwCPX4Yamm14spVJQjLEMZBztLMDGRddJr1gIof1hiNXG7NtDGadrMoP/UbbWBgB40mSr6NS20OzWioUQwk9wbMJtciwAYKsmISHUPvFNPUo4YLzalf6wQBUBAFrgHhJMfvPQvLf6SpYzEg580RsW/pTtpQEAHjUNCQOZV6DphrGW5YyUnttiw8I0cA+Lba5l0iUAwLNmIcG8rEZwnY3uU/ptlFNjQ+JVxLDAMAMAtKh5SDDOjW98upXqAeEgBrvaZRp46MnuSMg5B4DW+AkJJkoLZSP90iesWFDC9kC4CbCMlYAAAAH4Cwkmv0lkpeevAY6bFQuajUcTGYZoY67KvUxIJSAAQMv8hgTzsjTypsUmPFdMSkyAndyYnadPng52Led+2un3DQAU8R8SzMsN4srjPAVuEKmyoXHacAiCRlgAEEE7IaFgZ79PZL9tl8rCSm4wN5SXE2fDwkWNysJaWncTDgAgknZDQpm9SZzKHg3DLaFhJX0XHvIfGuR0j60yFZ+DzX3WF7KfA+ceABQIFxIAAEBSXLeKBgAAHUdIAAAAlQgJAACgEiEBAABUIiQAAIBKhAQAAFCJkAAAACoREgAAQCVCAgAAqERIAAAAvzLG/D9YSFWKCMAZ0wAAAABJRU5ErkJggg==" parent="-sU8y2Q3AdZbQh8XbGMl-1" vertex="1">
                    <mxGeometry x="-316.78" y="680.72" width="109.11" height="40" as="geometry"/>
                </mxCell>
                <mxCell id="LqsbPOSO8fhI4KLYFztt-62" value="Models" style="whiteSpace=wrap;html=1;shadow=0;labelBackgroundColor=none;sketch=0;fontSize=13;fillColor=none;" parent="-sU8y2Q3AdZbQh8XbGMl-1" vertex="1">
                    <mxGeometry x="-150" y="690.72" width="175" height="30" as="geometry"/>
                </mxCell>
                <mxCell id="LqsbPOSO8fhI4KLYFztt-63" value="Macros" style="whiteSpace=wrap;html=1;shadow=0;labelBackgroundColor=none;sketch=0;fontSize=13;fillColor=none;" parent="-sU8y2Q3AdZbQh8XbGMl-1" vertex="1">
                    <mxGeometry x="-150" y="730.72" width="175" height="30" as="geometry"/>
                </mxCell>
                <mxCell id="LqsbPOSO8fhI4KLYFztt-64" value="Tests" style="whiteSpace=wrap;html=1;shadow=0;labelBackgroundColor=none;sketch=0;fontSize=13;fillColor=none;" parent="-sU8y2Q3AdZbQh8XbGMl-1" vertex="1">
                    <mxGeometry x="-340" y="730.72" width="175" height="30" as="geometry"/>
                </mxCell>
                <mxCell id="0bfaKmcdTLZD-TV_Jw_w-26" style="edgeStyle=orthogonalEdgeStyle;rounded=0;orthogonalLoop=1;jettySize=auto;html=1;entryX=0.438;entryY=0.014;entryDx=0;entryDy=0;entryPerimeter=0;dashed=1;" parent="-sU8y2Q3AdZbQh8XbGMl-1" source="LqsbPOSO8fhI4KLYFztt-68" target="LqsbPOSO8fhI4KLYFztt-0" edge="1">
                    <mxGeometry relative="1" as="geometry"/>
                </mxCell>
                <mxCell id="LqsbPOSO8fhI4KLYFztt-68" value="Databricks&lt;br&gt;Connector" style="whiteSpace=wrap;html=1;shadow=0;labelBackgroundColor=none;sketch=0;fontSize=13;fillColor=none;" parent="-sU8y2Q3AdZbQh8XbGMl-1" vertex="1">
                    <mxGeometry x="40.5" y="730" width="175" height="30.72" as="geometry"/>
                </mxCell>
                <mxCell id="LqsbPOSO8fhI4KLYFztt-69" value="Data Job Alerts" style="aspect=fixed;html=1;points=[];align=center;image;fontSize=12;image=img/lib/azure2/management_governance/Alerts.svg;shadow=0;labelBackgroundColor=none;sketch=0;strokeColor=#13344c;fillColor=#13344C;opacity=20;" parent="-sU8y2Q3AdZbQh8XbGMl-1" vertex="1">
                    <mxGeometry x="218.82" y="1527.75" width="67" height="56.00000000000001" as="geometry"/>
                </mxCell>
                <mxCell id="LqsbPOSO8fhI4KLYFztt-70" value="Data Pipeline Alerts" style="aspect=fixed;html=1;points=[];align=center;image;fontSize=12;image=img/lib/azure2/management_governance/Alerts.svg;shadow=0;labelBackgroundColor=none;sketch=0;strokeColor=#13344c;fillColor=#13344C;opacity=20;" parent="-sU8y2Q3AdZbQh8XbGMl-1" vertex="1">
                    <mxGeometry x="566.98" y="1525" width="67" height="56.00000000000001" as="geometry"/>
                </mxCell>
                <mxCell id="LqsbPOSO8fhI4KLYFztt-71" value="Azure DevOps Pipeline Alerts" style="aspect=fixed;html=1;points=[];align=center;image;fontSize=12;image=img/lib/azure2/management_governance/Alerts.svg;shadow=0;labelBackgroundColor=none;sketch=0;strokeColor=#13344c;fillColor=#13344C;opacity=20;" parent="-sU8y2Q3AdZbQh8XbGMl-1" vertex="1">
                    <mxGeometry x="-128.18" y="1535.75" width="67" height="56.00000000000001" as="geometry"/>
                </mxCell>
                <mxCell id="0bfaKmcdTLZD-TV_Jw_w-18" style="edgeStyle=orthogonalEdgeStyle;rounded=0;orthogonalLoop=1;jettySize=auto;html=1;" parent="-sU8y2Q3AdZbQh8XbGMl-1" source="LqsbPOSO8fhI4KLYFztt-74" target="LqsbPOSO8fhI4KLYFztt-19" edge="1">
                    <mxGeometry relative="1" as="geometry"/>
                </mxCell>
                <mxCell id="LqsbPOSO8fhI4KLYFztt-74" value="&lt;b&gt;Orchestration&lt;/b&gt;" style="whiteSpace=wrap;html=1;shadow=0;labelBackgroundColor=none;sketch=0;fontSize=13;verticalAlign=top;fillStyle=zigzag;fillColor=#5FC0C5;opacity=30;" parent="-sU8y2Q3AdZbQh8XbGMl-1" vertex="1">
                    <mxGeometry x="-890" y="1018.5" width="400" height="180" as="geometry"/>
                </mxCell>
                <mxCell id="LqsbPOSO8fhI4KLYFztt-75" value="Azure Data Factory" style="aspect=fixed;html=1;points=[];align=center;image;fontSize=13;image=img/lib/azure2/databases/Data_Factory.svg;shadow=0;labelBackgroundColor=none;sketch=0;strokeColor=#13344c;fillColor=#13344C;opacity=20;" parent="-sU8y2Q3AdZbQh8XbGMl-1" vertex="1">
                    <mxGeometry x="-711.5" y="1087" width="43" height="43" as="geometry"/>
                </mxCell>
                <mxCell id="LqsbPOSO8fhI4KLYFztt-82" value="&lt;b&gt;CICD Framework&lt;/b&gt;" style="whiteSpace=wrap;html=1;verticalAlign=top;fontSize=13;dashed=1;sketch=0;shadow=0;glass=0;rounded=0;fillStyle=zigzag;opacity=20;fillColor=#13344c;" parent="-sU8y2Q3AdZbQh8XbGMl-1" vertex="1">
                    <mxGeometry x="-1170" y="510" width="260" height="1280" as="geometry"/>
                </mxCell>
                <mxCell id="LqsbPOSO8fhI4KLYFztt-83" value="Azure DevOps" style="aspect=fixed;html=1;points=[];align=center;image;fontSize=12;image=img/lib/mscae/Azure_DevOps.svg;shadow=0;labelBackgroundColor=none;sketch=0;strokeColor=#000000;fillColor=#13344C;" parent="-sU8y2Q3AdZbQh8XbGMl-1" vertex="1">
                    <mxGeometry x="-1070.37" y="560" width="50" height="50" as="geometry"/>
                </mxCell>
                <mxCell id="LqsbPOSO8fhI4KLYFztt-86" style="edgeStyle=orthogonalEdgeStyle;rounded=0;orthogonalLoop=1;jettySize=auto;html=1;dashed=1;dashPattern=1 1;startArrow=none;startFill=0;endArrow=classic;endFill=1;strokeColor=#F99007;strokeWidth=2;fontSize=13;" parent="-sU8y2Q3AdZbQh8XbGMl-1" edge="1">
                    <mxGeometry relative="1" as="geometry">
                        <mxPoint x="-502.1399999999999" y="1395" as="targetPoint"/>
                    </mxGeometry>
                </mxCell>
                <mxCell id="0bfaKmcdTLZD-TV_Jw_w-17" style="edgeStyle=orthogonalEdgeStyle;rounded=0;orthogonalLoop=1;jettySize=auto;html=1;strokeColor=#858585;" parent="-sU8y2Q3AdZbQh8XbGMl-1" source="LqsbPOSO8fhI4KLYFztt-97" target="LqsbPOSO8fhI4KLYFztt-60" edge="1">
                    <mxGeometry relative="1" as="geometry"/>
                </mxCell>
                <mxCell id="LqsbPOSO8fhI4KLYFztt-97" value="DBT" style="whiteSpace=wrap;html=1;shadow=0;labelBackgroundColor=none;sketch=0;strokeColor=#13344c;fillColor=none;fontSize=13;verticalAlign=top;" parent="-sU8y2Q3AdZbQh8XbGMl-1" vertex="1">
                    <mxGeometry x="-1159.2399999999998" y="675.72" width="228.5" height="100" as="geometry"/>
                </mxCell>
                <mxCell id="LqsbPOSO8fhI4KLYFztt-91" value="Repo" style="aspect=fixed;html=1;points=[];align=center;image;fontSize=12;image=img/lib/mscae/Azure_Repos.svg;shadow=0;labelBackgroundColor=none;sketch=0;strokeColor=#13344c;fillColor=none;" parent="-sU8y2Q3AdZbQh8XbGMl-1" vertex="1">
                    <mxGeometry x="-1142.7399999999998" y="710.72" width="27" height="30" as="geometry"/>
                </mxCell>
                <mxCell id="LqsbPOSO8fhI4KLYFztt-94" value="Pipeline" style="aspect=fixed;html=1;points=[];align=center;image;fontSize=12;image=img/lib/mscae/Azure_Pipelines.svg;shadow=0;labelBackgroundColor=none;sketch=0;strokeColor=#000000;fillColor=none;opacity=30;" parent="-sU8y2Q3AdZbQh8XbGMl-1" vertex="1">
                    <mxGeometry x="-1093.2399999999998" y="710.72" width="30" height="30" as="geometry"/>
                </mxCell>
                <mxCell id="LqsbPOSO8fhI4KLYFztt-101" value="dev" style="rounded=0;whiteSpace=wrap;html=1;shadow=0;labelBackgroundColor=none;sketch=0;strokeColor=#13344c;fillColor=none;fontSize=13;opacity=30;" parent="-sU8y2Q3AdZbQh8XbGMl-1" vertex="1">
                    <mxGeometry x="-1008.74" y="685.72" width="72" height="20" as="geometry"/>
                </mxCell>
                <mxCell id="LqsbPOSO8fhI4KLYFztt-102" value="test" style="rounded=0;whiteSpace=wrap;html=1;shadow=0;labelBackgroundColor=none;sketch=0;strokeColor=#13344c;fillColor=none;fontSize=13;opacity=30;" parent="-sU8y2Q3AdZbQh8XbGMl-1" vertex="1">
                    <mxGeometry x="-1008.74" y="715.72" width="72" height="20" as="geometry"/>
                </mxCell>
                <mxCell id="LqsbPOSO8fhI4KLYFztt-103" value="prod" style="rounded=0;whiteSpace=wrap;html=1;shadow=0;labelBackgroundColor=none;sketch=0;strokeColor=#13344c;fillColor=none;fontSize=13;opacity=30;" parent="-sU8y2Q3AdZbQh8XbGMl-1" vertex="1">
                    <mxGeometry x="-1008.74" y="745.72" width="72" height="20" as="geometry"/>
                </mxCell>
                <mxCell id="0bfaKmcdTLZD-TV_Jw_w-14" style="edgeStyle=orthogonalEdgeStyle;rounded=0;orthogonalLoop=1;jettySize=auto;html=1;fillColor=#f5f5f5;strokeColor=#666666;" parent="-sU8y2Q3AdZbQh8XbGMl-1" source="LqsbPOSO8fhI4KLYFztt-104" target="LqsbPOSO8fhI4KLYFztt-0" edge="1">
                    <mxGeometry relative="1" as="geometry"/>
                </mxCell>
                <mxCell id="LqsbPOSO8fhI4KLYFztt-104" value="Databricks" style="whiteSpace=wrap;html=1;shadow=0;labelBackgroundColor=none;sketch=0;strokeColor=#13344c;fillColor=none;fontSize=13;verticalAlign=top;" parent="-sU8y2Q3AdZbQh8XbGMl-1" vertex="1">
                    <mxGeometry x="-1159.2399999999998" y="831.5" width="228.5" height="100" as="geometry"/>
                </mxCell>
                <mxCell id="LqsbPOSO8fhI4KLYFztt-105" value="dev" style="rounded=0;whiteSpace=wrap;html=1;shadow=0;labelBackgroundColor=none;sketch=0;strokeColor=#13344c;fillColor=none;fontSize=13;opacity=30;" parent="-sU8y2Q3AdZbQh8XbGMl-1" vertex="1">
                    <mxGeometry x="-1008.7400000000001" y="841.5" width="72" height="20" as="geometry"/>
                </mxCell>
                <mxCell id="LqsbPOSO8fhI4KLYFztt-106" value="test" style="rounded=0;whiteSpace=wrap;html=1;shadow=0;labelBackgroundColor=none;sketch=0;strokeColor=#13344c;fillColor=none;fontSize=13;opacity=30;" parent="-sU8y2Q3AdZbQh8XbGMl-1" vertex="1">
                    <mxGeometry x="-1008.7400000000001" y="871.5" width="72" height="20" as="geometry"/>
                </mxCell>
                <mxCell id="LqsbPOSO8fhI4KLYFztt-107" value="prod" style="rounded=0;whiteSpace=wrap;html=1;shadow=0;labelBackgroundColor=none;sketch=0;strokeColor=#13344c;fillColor=none;fontSize=13;opacity=30;" parent="-sU8y2Q3AdZbQh8XbGMl-1" vertex="1">
                    <mxGeometry x="-1008.7400000000001" y="901.5" width="72" height="20" as="geometry"/>
                </mxCell>
                <mxCell id="LqsbPOSO8fhI4KLYFztt-108" value="Pipeline" style="aspect=fixed;html=1;points=[];align=center;image;fontSize=12;image=img/lib/mscae/Azure_Pipelines.svg;shadow=0;labelBackgroundColor=none;sketch=0;strokeColor=#000000;fillColor=none;opacity=30;" parent="-sU8y2Q3AdZbQh8XbGMl-1" vertex="1">
                    <mxGeometry x="-1093.2399999999998" y="866.5" width="30" height="30" as="geometry"/>
                </mxCell>
                <mxCell id="LqsbPOSO8fhI4KLYFztt-109" value="Repo" style="aspect=fixed;html=1;points=[];align=center;image;fontSize=12;image=img/lib/mscae/Azure_Repos.svg;shadow=0;labelBackgroundColor=none;sketch=0;strokeColor=#13344c;fillColor=none;opacity=30;" parent="-sU8y2Q3AdZbQh8XbGMl-1" vertex="1">
                    <mxGeometry x="-1142.7399999999998" y="866.5" width="27" height="30" as="geometry"/>
                </mxCell>
                <mxCell id="LqsbPOSO8fhI4KLYFztt-110" value="Platform" style="whiteSpace=wrap;html=1;shadow=0;labelBackgroundColor=none;sketch=0;strokeColor=#13344c;fillColor=none;fontSize=13;verticalAlign=top;" parent="-sU8y2Q3AdZbQh8XbGMl-1" vertex="1">
                    <mxGeometry x="-1154.25" y="1297" width="228.5" height="100" as="geometry"/>
                </mxCell>
                <mxCell id="LqsbPOSO8fhI4KLYFztt-111" value="Pipeline" style="aspect=fixed;html=1;points=[];align=center;image;fontSize=12;image=img/lib/mscae/Azure_Pipelines.svg;shadow=0;labelBackgroundColor=none;sketch=0;strokeColor=#000000;fillColor=none;opacity=30;" parent="-sU8y2Q3AdZbQh8XbGMl-1" vertex="1">
                    <mxGeometry x="-1088.25" y="1332" width="30" height="30" as="geometry"/>
                </mxCell>
                <mxCell id="LqsbPOSO8fhI4KLYFztt-112" value="Repo" style="aspect=fixed;html=1;points=[];align=center;image;fontSize=12;image=img/lib/mscae/Azure_Repos.svg;shadow=0;labelBackgroundColor=none;sketch=0;strokeColor=#13344c;fillColor=none;opacity=30;" parent="-sU8y2Q3AdZbQh8XbGMl-1" vertex="1">
                    <mxGeometry x="-1137.75" y="1332" width="27" height="30" as="geometry"/>
                </mxCell>
                <mxCell id="LqsbPOSO8fhI4KLYFztt-113" value="dev" style="rounded=0;whiteSpace=wrap;html=1;shadow=0;labelBackgroundColor=none;sketch=0;strokeColor=#13344c;fillColor=none;fontSize=13;opacity=30;" parent="-sU8y2Q3AdZbQh8XbGMl-1" vertex="1">
                    <mxGeometry x="-1003.75" y="1307" width="72" height="20" as="geometry"/>
                </mxCell>
                <mxCell id="LqsbPOSO8fhI4KLYFztt-114" value="test" style="rounded=0;whiteSpace=wrap;html=1;shadow=0;labelBackgroundColor=none;sketch=0;strokeColor=#13344c;fillColor=none;fontSize=13;opacity=30;" parent="-sU8y2Q3AdZbQh8XbGMl-1" vertex="1">
                    <mxGeometry x="-1003.75" y="1337" width="72" height="20" as="geometry"/>
                </mxCell>
                <mxCell id="LqsbPOSO8fhI4KLYFztt-115" value="prod" style="rounded=0;whiteSpace=wrap;html=1;shadow=0;labelBackgroundColor=none;sketch=0;strokeColor=#13344c;fillColor=none;fontSize=13;opacity=30;" parent="-sU8y2Q3AdZbQh8XbGMl-1" vertex="1">
                    <mxGeometry x="-1003.75" y="1367" width="72" height="20" as="geometry"/>
                </mxCell>
                <mxCell id="LqsbPOSO8fhI4KLYFztt-121" value="" style="group" parent="-sU8y2Q3AdZbQh8XbGMl-1" vertex="1" connectable="0">
                    <mxGeometry x="630" y="510" width="160" height="200" as="geometry"/>
                </mxCell>
                <mxCell id="LqsbPOSO8fhI4KLYFztt-117" value="Legend" style="rounded=0;whiteSpace=wrap;html=1;shadow=0;labelBackgroundColor=none;sketch=0;strokeColor=#13344c;fillColor=none;fontSize=13;opacity=30;verticalAlign=top;dashed=1;dashPattern=1 1;" parent="LqsbPOSO8fhI4KLYFztt-121" vertex="1">
                    <mxGeometry width="160" height="200" as="geometry"/>
                </mxCell>
                <mxCell id="LqsbPOSO8fhI4KLYFztt-118" value="&lt;b&gt;Data Components&lt;/b&gt;" style="whiteSpace=wrap;html=1;shadow=0;labelBackgroundColor=none;sketch=0;fontSize=13;verticalAlign=top;fillStyle=zigzag;fillColor=#5FC0C5;opacity=30;" parent="LqsbPOSO8fhI4KLYFztt-121" vertex="1">
                    <mxGeometry x="15" y="37.5" width="125" height="40" as="geometry"/>
                </mxCell>
                <mxCell id="LqsbPOSO8fhI4KLYFztt-119" value="&lt;b&gt;Core Components&lt;/b&gt;" style="rounded=0;whiteSpace=wrap;html=1;shadow=0;labelBackgroundColor=none;sketch=0;fontSize=13;verticalAlign=top;fillStyle=zigzag;strokeColor=#F99007;fillColor=#f99007;opacity=20;" parent="LqsbPOSO8fhI4KLYFztt-121" vertex="1">
                    <mxGeometry x="15" y="140" width="125" height="40" as="geometry"/>
                </mxCell>
                <mxCell id="LqsbPOSO8fhI4KLYFztt-120" value="&lt;b&gt;Shared Components&lt;/b&gt;" style="rounded=0;whiteSpace=wrap;html=1;shadow=0;labelBackgroundColor=none;sketch=0;fontSize=13;verticalAlign=top;fillStyle=zigzag;opacity=20;fillColor=#13344C;" parent="LqsbPOSO8fhI4KLYFztt-121" vertex="1">
                    <mxGeometry x="15" y="90" width="125" height="40" as="geometry"/>
                </mxCell>
                <mxCell id="0bfaKmcdTLZD-TV_Jw_w-13" style="edgeStyle=orthogonalEdgeStyle;rounded=0;orthogonalLoop=1;jettySize=auto;html=1;fillColor=#f5f5f5;strokeColor=#666666;" parent="-sU8y2Q3AdZbQh8XbGMl-1" source="0bfaKmcdTLZD-TV_Jw_w-0" target="LqsbPOSO8fhI4KLYFztt-74" edge="1">
                    <mxGeometry relative="1" as="geometry"/>
                </mxCell>
                <mxCell id="0bfaKmcdTLZD-TV_Jw_w-0" value="Data Factory" style="whiteSpace=wrap;html=1;shadow=0;labelBackgroundColor=none;sketch=0;strokeColor=#13344c;fillColor=none;fontSize=13;verticalAlign=top;" parent="-sU8y2Q3AdZbQh8XbGMl-1" vertex="1">
                    <mxGeometry x="-1159.62" y="1058.5" width="228.5" height="100" as="geometry"/>
                </mxCell>
                <mxCell id="0bfaKmcdTLZD-TV_Jw_w-1" value="Pipeline" style="aspect=fixed;html=1;points=[];align=center;image;fontSize=12;image=img/lib/mscae/Azure_Pipelines.svg;shadow=0;labelBackgroundColor=none;sketch=0;strokeColor=#000000;fillColor=none;opacity=30;" parent="-sU8y2Q3AdZbQh8XbGMl-1" vertex="1">
                    <mxGeometry x="-1093.62" y="1093.5" width="30" height="30" as="geometry"/>
                </mxCell>
                <mxCell id="0bfaKmcdTLZD-TV_Jw_w-2" value="Repo" style="aspect=fixed;html=1;points=[];align=center;image;fontSize=12;image=img/lib/mscae/Azure_Repos.svg;shadow=0;labelBackgroundColor=none;sketch=0;strokeColor=#13344c;fillColor=none;opacity=30;" parent="-sU8y2Q3AdZbQh8XbGMl-1" vertex="1">
                    <mxGeometry x="-1143.12" y="1093.5" width="27" height="30" as="geometry"/>
                </mxCell>
                <mxCell id="0bfaKmcdTLZD-TV_Jw_w-3" value="dev" style="rounded=0;whiteSpace=wrap;html=1;shadow=0;labelBackgroundColor=none;sketch=0;strokeColor=#13344c;fillColor=none;fontSize=13;opacity=30;" parent="-sU8y2Q3AdZbQh8XbGMl-1" vertex="1">
                    <mxGeometry x="-1009.12" y="1068.5" width="72" height="20" as="geometry"/>
                </mxCell>
                <mxCell id="0bfaKmcdTLZD-TV_Jw_w-4" value="test" style="rounded=0;whiteSpace=wrap;html=1;shadow=0;labelBackgroundColor=none;sketch=0;strokeColor=#13344c;fillColor=none;fontSize=13;opacity=30;" parent="-sU8y2Q3AdZbQh8XbGMl-1" vertex="1">
                    <mxGeometry x="-1009.12" y="1098.5" width="72" height="20" as="geometry"/>
                </mxCell>
                <mxCell id="0bfaKmcdTLZD-TV_Jw_w-5" value="prod" style="rounded=0;whiteSpace=wrap;html=1;shadow=0;labelBackgroundColor=none;sketch=0;strokeColor=#13344c;fillColor=none;fontSize=13;opacity=30;" parent="-sU8y2Q3AdZbQh8XbGMl-1" vertex="1">
                    <mxGeometry x="-1009.12" y="1128.5" width="72" height="20" as="geometry"/>
                </mxCell>
                <mxCell id="LqsbPOSO8fhI4KLYFztt-7" value="&lt;b&gt;Identity&lt;/b&gt;" style="rounded=0;whiteSpace=wrap;html=1;shadow=0;labelBackgroundColor=none;sketch=0;fontSize=13;verticalAlign=top;fillStyle=zigzag;strokeColor=#F99007;fillColor=#f99007;opacity=20;" parent="-sU8y2Q3AdZbQh8XbGMl-1" vertex="1">
                    <mxGeometry x="-890" y="1250" width="530" height="180" as="geometry"/>
                </mxCell>
                <mxCell id="LqsbPOSO8fhI4KLYFztt-8" value="Groups" style="whiteSpace=wrap;html=1;labelPosition=center;verticalLabelPosition=middle;align=center;verticalAlign=top;sketch=0;fillStyle=zigzag;fontSize=13;fillColor=none;" parent="-sU8y2Q3AdZbQh8XbGMl-1" vertex="1">
                    <mxGeometry x="-875" y="1319" width="260" height="100" as="geometry"/>
                </mxCell>
                <mxCell id="LqsbPOSO8fhI4KLYFztt-9" value="Analysts" style="aspect=fixed;html=1;points=[];align=center;image;fontSize=13;image=img/lib/azure2/management_governance/User_Privacy.svg;rounded=0;dashed=1;labelBackgroundColor=none;sketch=0;fillColor=none;" parent="-sU8y2Q3AdZbQh8XbGMl-1" vertex="1">
                    <mxGeometry x="-700.9799999999999" y="1336" width="49.88" height="53" as="geometry"/>
                </mxCell>
                <mxCell id="LqsbPOSO8fhI4KLYFztt-10" value="Engineers" style="aspect=fixed;html=1;points=[];align=center;image;fontSize=13;image=img/lib/azure2/management_governance/User_Privacy.svg;rounded=0;dashed=1;labelBackgroundColor=none;sketch=0;fillColor=none;" parent="-sU8y2Q3AdZbQh8XbGMl-1" vertex="1">
                    <mxGeometry x="-838.9" y="1336" width="49.88" height="53" as="geometry"/>
                </mxCell>
                <mxCell id="LqsbPOSO8fhI4KLYFztt-11" value="Azure AD" style="verticalLabelPosition=bottom;html=1;verticalAlign=top;align=center;strokeColor=none;fillColor=#00BEF2;shape=mxgraph.azure.azure_active_directory;labelBackgroundColor=none;sketch=0;" parent="-sU8y2Q3AdZbQh8XbGMl-1" vertex="1">
                    <mxGeometry x="-875" y="1255.5" width="35" height="34.5" as="geometry"/>
                </mxCell>
                <mxCell id="0bfaKmcdTLZD-TV_Jw_w-28" style="edgeStyle=orthogonalEdgeStyle;rounded=0;orthogonalLoop=1;jettySize=auto;html=1;dashed=1;strokeColor=#000000;" parent="-sU8y2Q3AdZbQh8XbGMl-1" source="0bfaKmcdTLZD-TV_Jw_w-20" target="LqsbPOSO8fhI4KLYFztt-75" edge="1">
                    <mxGeometry relative="1" as="geometry"/>
                </mxCell>
                <mxCell id="0bfaKmcdTLZD-TV_Jw_w-20" value="Schedules" style="pointerEvents=1;shadow=0;dashed=0;html=1;strokeColor=none;fillColor=#505050;labelPosition=center;verticalLabelPosition=bottom;verticalAlign=top;outlineConnect=0;align=center;shape=mxgraph.office.concepts.clock;opacity=30;fontSize=13;" parent="-sU8y2Q3AdZbQh8XbGMl-1" vertex="1">
                    <mxGeometry x="-836.46" y="1058.5" width="45" height="45" as="geometry"/>
                </mxCell>
                <mxCell id="0bfaKmcdTLZD-TV_Jw_w-22" value="Tokens" style="whiteSpace=wrap;html=1;labelPosition=center;verticalLabelPosition=middle;align=center;verticalAlign=top;sketch=0;fillStyle=zigzag;fontSize=13;fillColor=none;" parent="-sU8y2Q3AdZbQh8XbGMl-1" vertex="1">
                    <mxGeometry x="-605" y="1319" width="225" height="100" as="geometry"/>
                </mxCell>
                <mxCell id="0bfaKmcdTLZD-TV_Jw_w-25" value="" style="group" parent="-sU8y2Q3AdZbQh8XbGMl-1" vertex="1" connectable="0">
                    <mxGeometry x="-570.0000000000002" y="1340" width="41.66999999999996" height="40" as="geometry"/>
                </mxCell>
                <mxCell id="0bfaKmcdTLZD-TV_Jw_w-23" value="" style="aspect=fixed;html=1;points=[];align=center;image;fontSize=12;image=img/lib/mscae/Databricks.svg;shadow=1;labelBackgroundColor=none;sketch=0;fillColor=none;opacity=50;" parent="0bfaKmcdTLZD-TV_Jw_w-25" vertex="1">
                    <mxGeometry width="41.67" height="40" as="geometry"/>
                </mxCell>
                <mxCell id="0bfaKmcdTLZD-TV_Jw_w-24" value="Databricks&lt;br&gt;Service Principals" style="outlineConnect=0;fontColor=#232F3E;gradientColor=none;strokeColor=#232F3E;dashed=0;verticalLabelPosition=bottom;verticalAlign=top;align=center;html=1;fontSize=12;fontStyle=0;aspect=fixed;shape=mxgraph.aws4.resourceIcon;resIcon=mxgraph.aws4.saml_token;fillColor=none;" parent="0bfaKmcdTLZD-TV_Jw_w-25" vertex="1">
                    <mxGeometry x="3.840000000000259" y="3" width="34" height="34" as="geometry"/>
                </mxCell>
            </root>
        </mxGraphModel>
    </diagram>
</mxfile>